<svg width="37" height="33" viewBox="0 0 37 33" fill="none" xmlns="http://www.w3.org/2000/svg">
<path d="M14.25 8.64286H14.6051L14.7221 8.30758L15.1064 7.20621C15.2608 6.76423 15.6421 6.5 16.0375 6.5H19.9594C20.3548 6.5 20.7361 6.76423 20.8905 7.20621L20.8908 7.20721L21.2783 8.30878L21.3959 8.64286H21.75H24.5C25.0201 8.64286 25.5 9.10581 25.5 9.75V19.3929C25.5 20.037 25.0201 20.5 24.5 20.5H11.5C10.9799 20.5 10.5 20.037 10.5 19.3929V9.75C10.5 9.10581 10.9799 8.64286 11.5 8.64286H14.25ZM22.25 14.5714C22.25 12.1118 20.3768 10.0536 18 10.0536C15.6232 10.0536 13.75 12.1118 13.75 14.5714C13.75 17.031 15.6232 19.0893 18 19.0893C20.3768 19.0893 22.25 17.031 22.25 14.5714ZM20.25 14.5714C20.25 15.9522 19.2076 17.0179 18 17.0179C16.7924 17.0179 15.75 15.9522 15.75 14.5714C15.75 13.1906 16.7924 12.125 18 12.125C19.2076 12.125 20.25 13.1906 20.25 14.5714Z" fill="#50F4E1" stroke="#50F4E1"/>
<g filter="url(#filter0_d_159_204)">
<path d="M32.5714 6.25V22.3214C32.5714 23.8002 31.3717 25 29.8929 25H6.67857C5.19978 25 4 23.8002 4 22.3214V6.25C4 4.77121 5.19978 3.57143 6.67857 3.57143H11.5893L12.2757 1.73549C12.6663 0.691964 13.6652 0 14.7812 0H21.7846C22.9007 0 23.8996 0.691964 24.2902 1.73549L24.9821 3.57143H29.8929C31.3717 3.57143 32.5714 4.77121 32.5714 6.25ZM24.9821 14.2857C24.9821 10.5915 21.9799 7.58929 18.2857 7.58929C14.5915 7.58929 11.5893 10.5915 11.5893 14.2857C11.5893 17.9799 14.5915 20.9821 18.2857 20.9821C21.9799 20.9821 24.9821 17.9799 24.9821 14.2857ZM23.1964 14.2857C23.1964 16.9922 20.9922 19.1964 18.2857 19.1964C15.5792 19.1964 13.375 16.9922 13.375 14.2857C13.375 11.5792 15.5792 9.375 18.2857 9.375C20.9922 9.375 23.1964 11.5792 23.1964 14.2857Z" fill="#052346"/>
<path d="M24.9821 3.57143L24.2902 1.73549C23.8996 0.691964 22.9007 0 21.7846 0H14.7812C13.6652 0 12.6663 0.691964 12.2757 1.73549L24.9821 3.57143ZM24.9821 3.57143H29.8929C31.3717 3.57143 32.5714 4.77121 32.5714 6.25V22.3214C32.5714 23.8002 31.3717 25 29.8929 25H6.67857C5.19978 25 4 23.8002 4 22.3214V6.25C4 4.77121 5.19978 3.57143 6.67857 3.57143H11.5893H24.9821ZM11.5893 4.07143H11.9362L12.0576 3.74652L12.7439 1.91078C12.744 1.91074 12.744 1.9107 12.744 1.91067C12.744 1.91064 12.744 1.91061 12.744 1.91058C13.0614 1.06285 13.8734 0.5 14.7812 0.5H21.7846C22.6926 0.5 23.5045 1.06294 23.8219 1.91078L23.8223 1.91183L24.5143 3.74777L24.6363 4.07143H24.9821H29.8929C31.0955 4.07143 32.0714 5.04735 32.0714 6.25V22.3214C32.0714 23.5241 31.0955 24.5 29.8929 24.5H6.67857C5.47592 24.5 4.5 23.5241 4.5 22.3214V6.25C4.5 5.04735 5.47592 4.07143 6.67857 4.07143H11.5893ZM25.4821 14.2857C25.4821 10.3154 22.2561 7.08929 18.2857 7.08929C14.3154 7.08929 11.0893 10.3154 11.0893 14.2857C11.0893 18.2561 14.3154 21.4821 18.2857 21.4821C22.2561 21.4821 25.4821 18.2561 25.4821 14.2857ZM22.6964 14.2857C22.6964 16.716 20.716 18.6964 18.2857 18.6964C15.8554 18.6964 13.875 16.716 13.875 14.2857C13.875 11.8554 15.8554 9.875 18.2857 9.875C20.716 9.875 22.6964 11.8554 22.6964 14.2857Z" stroke="#50F4E1"/>
</g>
<defs>
<filter id="filter0_d_159_204" x="0" y="0" width="36.5715" height="33" filterUnits="userSpaceOnUse" color-interpolation-filters="sRGB">
<feFlood flood-opacity="0" result="BackgroundImageFix"/>
<feColorMatrix in="SourceAlpha" type="matrix" values="0 0 0 0 0 0 0 0 0 0 0 0 0 0 0 0 0 0 127 0" result="hardAlpha"/>
<feOffset dy="4"/>
<feGaussianBlur stdDeviation="2"/>
<feComposite in2="hardAlpha" operator="out"/>
<feColorMatrix type="matrix" values="0 0 0 0 0 0 0 0 0 0 0 0 0 0 0 0 0 0 0.25 0"/>
<feBlend mode="normal" in2="BackgroundImageFix" result="effect1_dropShadow_159_204"/>
<feBlend mode="normal" in="SourceGraphic" in2="effect1_dropShadow_159_204" result="shape"/>
</filter>
</defs>
</svg>
