<svg width="283" height="261" viewBox="0 0 283 261" fill="none" xmlns="http://www.w3.org/2000/svg">
<rect x="103" y="53" width="43" height="159" fill="#00FAAF"/>
<rect x="45" y="154" width="43" height="159" transform="rotate(-90 45 154)" fill="#00FAAF"/>
<g filter="url(#filter0_d_51_185)">
<ellipse cx="154.5" cy="128" rx="124.5" ry="125" fill="url(#paint0_linear_51_185)" shape-rendering="crispEdges"/>
<path d="M278.5 128C278.5 196.761 222.981 252.5 154.5 252.5C86.0186 252.5 30.5 196.761 30.5 128C30.5 59.2387 86.0186 3.5 154.5 3.5C222.981 3.5 278.5 59.2387 278.5 128Z" stroke="url(#paint1_diamond_51_185)" shape-rendering="crispEdges"/>
</g>
<path d="M112.124 94.42C111.284 94.42 110.612 94.196 110.108 93.748C109.604 93.3 109.352 92.684 109.352 91.9V74.596C109.352 71.348 110.276 68.8 112.124 66.952C113.972 65.104 116.52 64.18 119.768 64.18C121.336 64.18 122.806 64.572 124.178 65.356C125.578 66.112 126.782 67.204 127.79 68.632C128.77 67.176 129.946 66.07 131.318 65.314C132.718 64.558 134.23 64.18 135.854 64.18C139.102 64.18 141.65 65.104 143.498 66.952C145.346 68.8 146.27 71.348 146.27 74.596V91.9C146.27 92.656 146.004 93.272 145.472 93.748C144.968 94.196 144.296 94.42 143.456 94.42C142.616 94.42 141.944 94.196 141.44 93.748C140.936 93.3 140.684 92.684 140.684 91.9V74.596C140.684 72.468 140.292 70.942 139.508 70.018C138.724 69.066 137.436 68.59 135.644 68.59C134.02 68.59 132.76 69.108 131.864 70.144C130.996 71.18 130.562 72.664 130.562 74.596V91.9C130.562 92.684 130.31 93.3 129.806 93.748C129.302 94.196 128.63 94.42 127.79 94.42C126.95 94.42 126.278 94.196 125.774 93.748C125.298 93.3 125.06 92.684 125.06 91.9V74.596C125.06 72.72 124.612 71.25 123.716 70.186C122.82 69.122 121.574 68.59 119.978 68.59C118.186 68.59 116.898 69.066 116.114 70.018C115.33 70.942 114.938 72.468 114.938 74.596V91.9C114.938 92.656 114.672 93.272 114.14 93.748C113.636 94.196 112.964 94.42 112.124 94.42ZM161.231 94.4C157.764 94.4 155.084 93.5067 153.191 91.72C151.298 89.9333 150.351 87.4 150.351 84.12C150.351 80.9733 151.311 78.5067 153.231 76.72C155.151 74.9067 157.778 74 161.111 74C163.164 74 164.991 74.3333 166.591 75C168.191 75.64 169.431 76.56 170.311 77.76C171.218 78.9333 171.671 80.28 171.671 81.8C171.671 82.92 171.351 83.7867 170.711 84.4C170.098 85.0133 169.244 85.32 168.151 85.32H153.351C153.351 87.3733 154.044 88.9867 155.431 90.16C156.818 91.3067 158.751 91.88 161.231 91.88C162.751 91.88 164.058 91.72 165.151 91.4C166.244 91.0533 167.271 90.5067 168.231 89.76C168.738 89.3333 169.151 89.12 169.471 89.12C169.711 89.12 169.938 89.2267 170.151 89.44C170.524 89.76 170.711 90.0933 170.711 90.44C170.711 90.7067 170.551 91 170.231 91.32C169.138 92.36 167.858 93.1333 166.391 93.64C164.924 94.1467 163.204 94.4 161.231 94.4ZM167.271 82.96C167.751 82.96 168.111 82.8667 168.351 82.68C168.591 82.4667 168.711 82.0933 168.711 81.56C168.711 80.6 168.391 79.7333 167.751 78.96C167.111 78.1867 166.204 77.5867 165.031 77.16C163.884 76.7333 162.578 76.52 161.111 76.52C158.738 76.52 156.858 77.1067 155.471 78.28C154.111 79.4267 153.431 80.9867 153.431 82.96H167.271ZM185.093 94.4C181.787 94.4 179.173 93.5067 177.253 91.72C175.36 89.9067 174.413 87.44 174.413 84.32C174.413 82.3467 174.827 80.5867 175.653 79.04C176.507 77.4667 177.733 76.24 179.333 75.36C180.96 74.4533 182.907 74 185.173 74C187.093 74 188.72 74.36 190.053 75.08C191.413 75.8 192.613 76.8 193.653 78.08L193.693 65.24C193.693 64.7333 193.813 64.3467 194.053 64.08C194.32 63.7867 194.693 63.64 195.173 63.64C195.627 63.64 195.973 63.7867 196.213 64.08C196.48 64.3467 196.613 64.7333 196.613 65.24V92.8C196.613 93.3067 196.48 93.7067 196.213 94C195.973 94.2667 195.627 94.4 195.173 94.4C194.72 94.4 194.36 94.2667 194.093 94C193.827 93.7067 193.693 93.3067 193.693 92.8V90.24C192.76 91.6 191.56 92.64 190.093 93.36C188.653 94.0533 186.987 94.4 185.093 94.4ZM185.333 91.88C187.92 91.88 189.96 91.2 191.453 89.84C192.947 88.4533 193.693 86.5733 193.693 84.2C193.693 82.6267 193.307 81.2667 192.533 80.12C191.787 78.9467 190.773 78.0533 189.493 77.44C188.24 76.8267 186.867 76.52 185.373 76.52C182.867 76.52 180.907 77.24 179.493 78.68C178.08 80.0933 177.373 81.9733 177.373 84.32C177.373 86.8267 178.067 88.72 179.453 90C180.84 91.2533 182.8 91.88 185.333 91.88ZM211.973 94.4C208.506 94.4 205.826 93.5067 203.933 91.72C202.04 89.9333 201.093 87.4 201.093 84.12C201.093 80.9733 202.053 78.5067 203.973 76.72C205.893 74.9067 208.52 74 211.853 74C213.906 74 215.733 74.3333 217.333 75C218.933 75.64 220.173 76.56 221.053 77.76C221.96 78.9333 222.413 80.28 222.413 81.8C222.413 82.92 222.093 83.7867 221.453 84.4C220.84 85.0133 219.986 85.32 218.893 85.32H204.093C204.093 87.3733 204.786 88.9867 206.173 90.16C207.56 91.3067 209.493 91.88 211.973 91.88C213.493 91.88 214.8 91.72 215.893 91.4C216.986 91.0533 218.013 90.5067 218.973 89.76C219.48 89.3333 219.893 89.12 220.213 89.12C220.453 89.12 220.68 89.2267 220.893 89.44C221.266 89.76 221.453 90.0933 221.453 90.44C221.453 90.7067 221.293 91 220.973 91.32C219.88 92.36 218.6 93.1333 217.133 93.64C215.666 94.1467 213.946 94.4 211.973 94.4ZM218.013 82.96C218.493 82.96 218.853 82.8667 219.093 82.68C219.333 82.4667 219.453 82.0933 219.453 81.56C219.453 80.6 219.133 79.7333 218.493 78.96C217.853 78.1867 216.946 77.5867 215.773 77.16C214.626 76.7333 213.32 76.52 211.853 76.52C209.48 76.52 207.6 77.1067 206.213 78.28C204.853 79.4267 204.173 80.9867 204.173 82.96H218.013ZM228.419 94.4C227.965 94.4 227.605 94.2667 227.339 94C227.099 93.7067 226.979 93.3067 226.979 92.8V75.6C226.979 75.0933 227.099 74.7067 227.339 74.44C227.579 74.1467 227.939 74 228.419 74C228.872 74 229.219 74.1467 229.459 74.44C229.725 74.7067 229.859 75.0933 229.859 75.6V77.96C230.845 76.6533 232.032 75.6667 233.419 75C234.832 74.3333 236.379 74 238.059 74C240.592 74 242.539 74.7067 243.899 76.12C245.285 77.5333 245.979 79.56 245.979 82.2V92.8C245.979 93.3067 245.845 93.7067 245.579 94C245.312 94.2667 244.952 94.4 244.499 94.4C244.019 94.4 243.659 94.2667 243.419 94C243.179 93.7067 243.059 93.3067 243.059 92.8V82.2C243.059 78.4133 241.272 76.52 237.699 76.52C235.352 76.52 233.459 77.2133 232.019 78.6C230.605 79.9867 229.899 81.8267 229.899 84.12V92.8C229.899 93.28 229.765 93.6667 229.499 93.96C229.259 94.2533 228.899 94.4 228.419 94.4ZM112.124 150.42C111.284 150.42 110.612 150.196 110.108 149.748C109.604 149.3 109.352 148.684 109.352 147.9V126.816C109.352 124.856 109.912 123.33 111.032 122.238C112.18 121.146 113.762 120.6 115.778 120.6H122.876C127.132 120.6 130.366 121.482 132.578 123.246C134.79 125.01 135.896 127.6 135.896 131.016C135.896 134.432 134.818 137.022 132.662 138.786C130.506 140.55 127.328 141.432 123.128 141.432H114.938V147.9C114.938 148.656 114.672 149.272 114.14 149.748C113.636 150.196 112.964 150.42 112.124 150.42ZM123.086 137.106C127.874 137.106 130.268 135.076 130.268 131.016C130.268 126.956 127.874 124.926 123.086 124.926H116.744C116.184 124.926 115.736 125.108 115.4 125.472C115.092 125.836 114.938 126.34 114.938 126.984V137.106H123.086ZM142.124 150.4C141.67 150.4 141.31 150.267 141.044 150C140.804 149.707 140.684 149.307 140.684 148.8V121.24C140.684 120.733 140.804 120.347 141.044 120.08C141.31 119.787 141.67 119.64 142.124 119.64C142.577 119.64 142.937 119.787 143.204 120.08C143.47 120.347 143.604 120.733 143.604 121.24V133.96C144.59 132.653 145.777 131.667 147.164 131C148.577 130.333 150.11 130 151.764 130C154.297 130 156.244 130.707 157.604 132.12C158.99 133.533 159.684 135.56 159.684 138.2V148.8C159.684 149.307 159.55 149.707 159.284 150C159.017 150.267 158.657 150.4 158.204 150.4C157.724 150.4 157.364 150.267 157.124 150C156.884 149.707 156.764 149.307 156.764 148.8V138.2C156.764 134.413 154.977 132.52 151.404 132.52C149.057 132.52 147.164 133.213 145.724 134.6C144.31 135.987 143.604 137.827 143.604 140.12V148.8C143.604 149.28 143.47 149.667 143.204 149.96C142.964 150.253 142.604 150.4 142.124 150.4ZM172.417 150.4C169.804 150.4 167.75 149.827 166.257 148.68C164.79 147.533 164.057 145.947 164.057 143.92C164.057 141.92 164.83 140.333 166.377 139.16C167.95 137.987 170.084 137.4 172.777 137.4C174.35 137.4 175.737 137.613 176.937 138.04C178.164 138.467 179.11 139.04 179.777 139.76V137.2C179.777 135.68 179.27 134.52 178.257 133.72C177.27 132.92 175.817 132.52 173.897 132.52C171.417 132.52 169.27 133.107 167.457 134.28C167.004 134.547 166.63 134.68 166.337 134.68C166.07 134.68 165.804 134.573 165.537 134.36C165.244 134.12 165.097 133.813 165.097 133.44C165.097 133.04 165.27 132.707 165.617 132.44C166.577 131.693 167.79 131.107 169.257 130.68C170.75 130.227 172.27 130 173.817 130C176.644 130 178.83 130.64 180.377 131.92C181.95 133.2 182.737 135 182.737 137.32V148.84C182.737 149.88 182.257 150.4 181.297 150.4C180.87 150.4 180.524 150.267 180.257 150C179.99 149.707 179.857 149.333 179.857 148.88V147.44C178.204 149.413 175.724 150.4 172.417 150.4ZM172.777 147.96C174.857 147.96 176.55 147.573 177.857 146.8C179.164 146 179.817 144.973 179.817 143.72C179.817 142.467 179.204 141.507 177.977 140.84C176.777 140.147 175.07 139.8 172.857 139.8C170.99 139.8 169.55 140.16 168.537 140.88C167.524 141.573 167.017 142.587 167.017 143.92C167.017 145.227 167.51 146.227 168.497 146.92C169.484 147.613 170.91 147.96 172.777 147.96ZM189.624 150.4C189.17 150.4 188.81 150.267 188.544 150C188.304 149.707 188.184 149.307 188.184 148.8V131.6C188.184 131.093 188.304 130.707 188.544 130.44C188.784 130.147 189.144 130 189.624 130C190.077 130 190.424 130.147 190.664 130.44C190.93 130.707 191.064 131.093 191.064 131.6V134C192.877 131.6 195.384 130.4 198.584 130.4H199.584C200.09 130.4 200.49 130.52 200.784 130.76C201.077 130.973 201.224 131.28 201.224 131.68C201.224 132.08 201.077 132.387 200.784 132.6C200.49 132.813 200.09 132.92 199.584 132.92H198.464C196.197 132.92 194.397 133.573 193.064 134.88C191.757 136.16 191.104 137.907 191.104 140.12V148.8C191.104 149.28 190.97 149.667 190.704 149.96C190.464 150.253 190.104 150.4 189.624 150.4ZM206.809 150.4C206.356 150.4 205.996 150.267 205.729 150C205.489 149.707 205.369 149.307 205.369 148.8V131.6C205.369 131.093 205.489 130.707 205.729 130.44C205.996 130.147 206.356 130 206.809 130C207.289 130 207.649 130.147 207.889 130.44C208.156 130.733 208.289 131.12 208.289 131.6V133.88C209.009 132.68 209.929 131.733 211.049 131.04C212.196 130.347 213.396 130 214.649 130C215.903 130 217.009 130.347 217.969 131.04C218.929 131.707 219.636 132.653 220.089 133.88C221.023 132.627 222.049 131.667 223.169 131C224.316 130.333 225.503 130 226.729 130C228.836 130 230.423 130.653 231.489 131.96C232.556 133.24 233.089 135.147 233.089 137.68V148.8C233.089 149.307 232.956 149.707 232.689 150C232.423 150.267 232.063 150.4 231.609 150.4C230.649 150.4 230.169 149.867 230.169 148.8V137.6C230.169 135.893 229.876 134.627 229.289 133.8C228.729 132.947 227.756 132.52 226.369 132.52C225.196 132.52 224.143 132.88 223.209 133.6C222.276 134.293 221.529 135.307 220.969 136.64V148.8C220.969 149.307 220.836 149.707 220.569 150C220.303 150.267 219.943 150.4 219.489 150.4C219.036 150.4 218.676 150.267 218.409 150C218.169 149.707 218.049 149.307 218.049 148.8V138.2C218.049 136.36 217.716 134.96 217.049 134C216.409 133.013 215.489 132.52 214.289 132.52C213.143 132.52 212.116 132.84 211.209 133.48C210.303 134.093 209.583 134.947 209.049 136.04C208.543 137.133 208.289 138.373 208.289 139.76V148.8C208.289 149.28 208.156 149.667 207.889 149.96C207.649 150.253 207.289 150.4 206.809 150.4ZM245.737 150.4C243.124 150.4 241.071 149.827 239.577 148.68C238.111 147.533 237.377 145.947 237.377 143.92C237.377 141.92 238.151 140.333 239.697 139.16C241.271 137.987 243.404 137.4 246.097 137.4C247.671 137.4 249.057 137.613 250.257 138.04C251.484 138.467 252.431 139.04 253.097 139.76V137.2C253.097 135.68 252.591 134.52 251.577 133.72C250.591 132.92 249.137 132.52 247.217 132.52C244.737 132.52 242.591 133.107 240.777 134.28C240.324 134.547 239.951 134.68 239.657 134.68C239.391 134.68 239.124 134.573 238.857 134.36C238.564 134.12 238.417 133.813 238.417 133.44C238.417 133.04 238.591 132.707 238.937 132.44C239.897 131.693 241.111 131.107 242.577 130.68C244.071 130.227 245.591 130 247.137 130C249.964 130 252.151 130.64 253.697 131.92C255.271 133.2 256.057 135 256.057 137.32V148.84C256.057 149.88 255.577 150.4 254.617 150.4C254.191 150.4 253.844 150.267 253.577 150C253.311 149.707 253.177 149.333 253.177 148.88V147.44C251.524 149.413 249.044 150.4 245.737 150.4ZM246.097 147.96C248.177 147.96 249.871 147.573 251.177 146.8C252.484 146 253.137 144.973 253.137 143.72C253.137 142.467 252.524 141.507 251.297 140.84C250.097 140.147 248.391 139.8 246.177 139.8C244.311 139.8 242.871 140.16 241.857 140.88C240.844 141.573 240.337 142.587 240.337 143.92C240.337 145.227 240.831 146.227 241.817 146.92C242.804 147.613 244.231 147.96 246.097 147.96ZM133.18 209.44C131.332 209.44 130.291 208.795 130.056 207.504C129.499 204.365 128.399 201.755 126.756 199.672C125.143 197.589 122.781 195.741 119.672 194.128L115.316 197.736V206.8C115.316 207.592 115.037 208.237 114.48 208.736C113.952 209.205 113.248 209.44 112.368 209.44C111.488 209.44 110.784 209.205 110.256 208.736C109.728 208.267 109.464 207.621 109.464 206.8V180.4C109.464 179.579 109.728 178.933 110.256 178.464C110.784 177.995 111.488 177.76 112.368 177.76C113.248 177.76 113.952 178.009 114.48 178.508C115.037 178.977 115.316 179.608 115.316 180.4V191.356L130.012 178.552C130.54 178.053 131.156 177.804 131.86 177.804C132.564 177.804 133.18 178.083 133.708 178.64C134.265 179.256 134.544 179.828 134.544 180.356C134.544 180.972 134.192 181.588 133.488 182.204L123.368 191.004C126.888 192.529 129.689 194.685 131.772 197.472C133.884 200.229 135.145 203.28 135.556 206.624C135.644 207.387 135.453 208.047 134.984 208.604C134.515 209.161 133.913 209.44 133.18 209.44ZM142.554 184.76C141.967 184.76 141.46 184.573 141.034 184.2C140.634 183.8 140.434 183.32 140.434 182.76C140.434 182.2 140.634 181.72 141.034 181.32C141.46 180.92 141.967 180.72 142.554 180.72C143.14 180.72 143.647 180.933 144.074 181.36C144.527 181.76 144.754 182.227 144.754 182.76C144.754 183.293 144.527 183.76 144.074 184.16C143.647 184.56 143.14 184.76 142.554 184.76ZM142.554 209.4C142.1 209.4 141.74 209.267 141.474 209C141.234 208.707 141.114 208.307 141.114 207.8V190.6C141.114 190.093 141.234 189.707 141.474 189.44C141.74 189.147 142.1 189 142.554 189C143.034 189 143.394 189.147 143.634 189.44C143.9 189.707 144.034 190.093 144.034 190.6V207.8C144.034 208.307 143.9 208.707 143.634 209C143.394 209.267 143.034 209.4 142.554 209.4ZM151.874 209.4C151.42 209.4 151.06 209.267 150.794 209C150.554 208.707 150.434 208.307 150.434 207.8V190.6C150.434 190.093 150.554 189.707 150.794 189.44C151.034 189.147 151.394 189 151.874 189C152.327 189 152.674 189.147 152.914 189.44C153.18 189.707 153.314 190.093 153.314 190.6V192.96C154.3 191.653 155.487 190.667 156.874 190C158.287 189.333 159.834 189 161.514 189C164.047 189 165.994 189.707 167.354 191.12C168.74 192.533 169.434 194.56 169.434 197.2V207.8C169.434 208.307 169.3 208.707 169.034 209C168.767 209.267 168.407 209.4 167.954 209.4C167.474 209.4 167.114 209.267 166.874 209C166.634 208.707 166.514 208.307 166.514 207.8V197.2C166.514 193.413 164.727 191.52 161.154 191.52C158.807 191.52 156.914 192.213 155.474 193.6C154.06 194.987 153.354 196.827 153.354 199.12V207.8C153.354 208.28 153.22 208.667 152.954 208.96C152.714 209.253 152.354 209.4 151.874 209.4ZM184.647 209.4C181.18 209.4 178.5 208.507 176.607 206.72C174.714 204.933 173.767 202.4 173.767 199.12C173.767 195.973 174.727 193.507 176.647 191.72C178.567 189.907 181.194 189 184.527 189C186.58 189 188.407 189.333 190.007 190C191.607 190.64 192.847 191.56 193.727 192.76C194.634 193.933 195.087 195.28 195.087 196.8C195.087 197.92 194.767 198.787 194.127 199.4C193.514 200.013 192.66 200.32 191.567 200.32H176.767C176.767 202.373 177.46 203.987 178.847 205.16C180.234 206.307 182.167 206.88 184.647 206.88C186.167 206.88 187.474 206.72 188.567 206.4C189.66 206.053 190.687 205.507 191.647 204.76C192.154 204.333 192.567 204.12 192.887 204.12C193.127 204.12 193.354 204.227 193.567 204.44C193.94 204.76 194.127 205.093 194.127 205.44C194.127 205.707 193.967 206 193.647 206.32C192.554 207.36 191.274 208.133 189.807 208.64C188.34 209.147 186.62 209.4 184.647 209.4ZM190.687 197.96C191.167 197.96 191.527 197.867 191.767 197.68C192.007 197.467 192.127 197.093 192.127 196.56C192.127 195.6 191.807 194.733 191.167 193.96C190.527 193.187 189.62 192.587 188.447 192.16C187.3 191.733 185.994 191.52 184.527 191.52C182.154 191.52 180.274 192.107 178.887 193.28C177.527 194.427 176.847 195.987 176.847 197.96H190.687Z" fill="white"/>
<defs>
<filter id="filter0_d_51_185" x="26" y="3" width="257" height="258" filterUnits="userSpaceOnUse" color-interpolation-filters="sRGB">
<feFlood flood-opacity="0" result="BackgroundImageFix"/>
<feColorMatrix in="SourceAlpha" type="matrix" values="0 0 0 0 0 0 0 0 0 0 0 0 0 0 0 0 0 0 127 0" result="hardAlpha"/>
<feOffset dy="4"/>
<feGaussianBlur stdDeviation="2"/>
<feComposite in2="hardAlpha" operator="out"/>
<feColorMatrix type="matrix" values="0 0 0 0 0 0 0 0 0 0 0 0 0 0 0 0 0 0 0.25 0"/>
<feBlend mode="normal" in2="BackgroundImageFix" result="effect1_dropShadow_51_185"/>
<feBlend mode="normal" in="SourceGraphic" in2="effect1_dropShadow_51_185" result="shape"/>
</filter>
<linearGradient id="paint0_linear_51_185" x1="-78.8745" y1="97.1296" x2="380.977" y2="194.558" gradientUnits="userSpaceOnUse">
<stop offset="0.214621" stop-color="#50F4E1"/>
<stop offset="1" stop-color="#0075FF" stop-opacity="0.54"/>
</linearGradient>
<radialGradient id="paint1_diamond_51_185" cx="0" cy="0" r="1" gradientUnits="userSpaceOnUse" gradientTransform="translate(154.5 128) rotate(90) scale(125 124.5)">
<stop stop-color="#FF0000"/>
<stop offset="1" stop-color="#FF0000" stop-opacity="0"/>
</radialGradient>
</defs>
</svg>
