<svg width="375" height="205" viewBox="0 0 375 205" fill="none" xmlns="http://www.w3.org/2000/svg">
<path d="M47.2847 125.641C47.4706 125.03 47.6513 124 47.9859 124C48.4269 124.088 48.4959 125.143 48.9741 125.787C49.2184 124.64 49.2556 121.632 49.7231 121.554C50.2013 121.52 50.7697 124.801 50.8919 125.338C51.4178 125.538 53.4897 125.66 53.4897 125.66C53.5906 126.017 52.2147 126.031 51.3647 126.041C51.1203 126.764 51.0778 127.394 50.7591 127.408C50.5094 127.418 50.3234 126.002 49.8294 124.986L49.33 128.185C49.0963 128.819 48.5066 127.086 48.1666 126.266C47.9912 126.261 44.8516 126.188 45.6378 125.885L47.2847 125.641V125.641ZM53.1125 135.875C54.2388 135.875 54.2388 134.313 53.1125 134.313H45.8875C44.7613 134.313 44.7613 135.875 45.8875 135.875H53.1125ZM51.8375 139C52.9638 139 52.9638 137.438 51.8375 137.438H47.1625C46.0363 137.438 46.0363 139 47.1625 139H51.8375ZM53.6544 132.091C53.8244 131.168 53.9306 130.313 54.2866 129.708C54.7063 128.99 55.1419 128.336 55.5616 127.706C56.8684 125.733 58 124.034 58 121.578C58 117.398 54.1856 114 49.5 114C44.8144 114 41 117.398 41 121.578C41 124.029 42.1316 125.733 43.4384 127.706C43.8581 128.336 44.2884 128.99 44.7134 129.708C45.0694 130.318 45.1756 131.163 45.3456 132.096C45.5316 133.121 47.2634 132.862 47.0775 131.847C46.8863 130.787 46.78 129.859 46.2647 128.985C44.5328 126.036 42.7531 124.317 42.7531 121.578C42.7531 118.263 45.7813 115.563 49.5 115.563C53.2188 115.563 56.2469 118.263 56.2469 121.578C56.2469 124.317 54.4672 126.036 52.7353 128.98C52.22 129.859 52.1138 130.807 51.9225 131.842C51.7419 132.848 53.4631 133.131 53.6544 132.091Z" fill="white" fill-opacity="0.34"/>
<path d="M120.5 114C113.044 114 107 118.573 107 124.214C107 126.648 108.129 128.879 110.006 130.635C109.345 133.105 107.142 135.313 107.116 135.337C107.059 135.393 107.021 135.463 107.007 135.538C106.993 135.614 107.002 135.692 107.035 135.762C107.067 135.833 107.121 135.893 107.19 135.935C107.259 135.977 107.339 136 107.422 136C110.916 136 113.539 134.441 114.836 133.477C116.647 134.109 118.566 134.431 120.5 134.429C127.956 134.429 134 129.856 134 124.214C134 118.573 127.956 114 120.5 114ZM125.562 125.393C125.562 125.497 125.518 125.597 125.439 125.671C125.36 125.744 125.253 125.786 125.141 125.786H122.188V128.536C122.188 128.64 122.143 128.74 122.064 128.814C121.985 128.887 121.878 128.929 121.766 128.929H119.234C119.122 128.929 119.015 128.887 118.936 128.814C118.857 128.74 118.812 128.64 118.812 128.536V125.786H115.859C115.747 125.786 115.64 125.744 115.561 125.671C115.482 125.597 115.438 125.497 115.438 125.393V123.036C115.438 122.932 115.482 122.832 115.561 122.758C115.64 122.684 115.747 122.643 115.859 122.643H118.812V119.893C118.812 119.789 118.857 119.689 118.936 119.615C119.015 119.541 119.122 119.5 119.234 119.5H121.766C121.878 119.5 121.985 119.541 122.064 119.615C122.143 119.689 122.188 119.789 122.188 119.893V122.643H125.141C125.253 122.643 125.36 122.684 125.439 122.758C125.518 122.832 125.562 122.932 125.562 123.036V125.393Z" fill="white" fill-opacity="0.34"/>
<path d="M330.5 113C323.044 113 317 117.573 317 123.214C317 125.648 318.129 127.879 320.006 129.635C319.345 132.105 317.142 134.313 317.116 134.337C317.059 134.393 317.021 134.463 317.007 134.538C316.993 134.614 317.002 134.692 317.035 134.762C317.067 134.833 317.121 134.893 317.19 134.935C317.259 134.977 317.339 135 317.422 135C320.916 135 323.539 133.441 324.836 132.477C326.647 133.109 328.566 133.431 330.5 133.429C337.956 133.429 344 128.856 344 123.214C344 117.573 337.956 113 330.5 113ZM335.562 124.393C335.562 124.497 335.518 124.597 335.439 124.671C335.36 124.744 335.253 124.786 335.141 124.786H332.188V127.536C332.188 127.64 332.143 127.74 332.064 127.814C331.985 127.887 331.878 127.929 331.766 127.929H329.234C329.122 127.929 329.015 127.887 328.936 127.814C328.857 127.74 328.812 127.64 328.812 127.536V124.786H325.859C325.747 124.786 325.64 124.744 325.561 124.671C325.482 124.597 325.438 124.497 325.438 124.393V122.036C325.438 121.932 325.482 121.832 325.561 121.758C325.64 121.684 325.747 121.643 325.859 121.643H328.812V118.893C328.812 118.789 328.857 118.689 328.936 118.615C329.015 118.541 329.122 118.5 329.234 118.5H331.766C331.878 118.5 331.985 118.541 332.064 118.615C332.143 118.689 332.188 118.789 332.188 118.893V121.643H335.141C335.253 121.643 335.36 121.684 335.439 121.758C335.518 121.832 335.562 121.932 335.562 122.036V124.393Z" fill="white" fill-opacity="0.34"/>
<path d="M148.285 90.6406C148.471 90.0303 148.651 89 148.986 89C149.427 89.0879 149.496 90.1426 149.974 90.7871C150.218 89.6397 150.256 86.6319 150.723 86.5537C151.201 86.5195 151.77 89.8008 151.892 90.3379C152.418 90.5381 154.49 90.6602 154.49 90.6602C154.591 91.0166 153.215 91.0313 152.365 91.041C152.12 91.7637 152.078 92.3936 151.759 92.4082C151.509 92.418 151.323 91.002 150.829 89.9863L150.33 93.1846C150.096 93.8194 149.507 92.086 149.167 91.2656C148.991 91.2608 145.852 91.1875 146.638 90.8848L148.285 90.6406V90.6406ZM154.113 100.875C155.239 100.875 155.239 99.3125 154.113 99.3125H146.888C145.761 99.3125 145.761 100.875 146.888 100.875H154.113ZM152.838 104C153.964 104 153.964 102.438 152.838 102.438H148.163C147.036 102.438 147.036 104 148.163 104H152.838ZM154.654 97.0908C154.824 96.168 154.931 95.3135 155.287 94.708C155.706 93.9903 156.142 93.336 156.562 92.7061C157.868 90.7334 159 89.0342 159 86.5781C159 82.3985 155.186 79 150.5 79C145.814 79 142 82.3985 142 86.5781C142 89.0293 143.132 90.7334 144.438 92.7061C144.858 93.336 145.288 93.9903 145.713 94.708C146.069 95.3184 146.176 96.1631 146.346 97.0957C146.532 98.1211 148.263 97.8623 148.078 96.8467C147.886 95.7871 147.78 94.8594 147.265 93.9854C145.533 91.0361 143.753 89.3174 143.753 86.5781C143.753 83.2627 146.781 80.5625 150.5 80.5625C154.219 80.5625 157.247 83.2627 157.247 86.5781C157.247 89.3174 155.467 91.0361 153.735 93.9805C153.22 94.8594 153.114 95.8067 152.923 96.8418C152.742 97.8477 154.463 98.1309 154.654 97.0908Z" fill="white" fill-opacity="0.34"/>
<path d="M221.5 79C214.044 79 208 83.5729 208 89.2143C208 91.6481 209.129 93.8795 211.006 95.6346C210.345 98.1051 208.142 100.313 208.116 100.337C208.059 100.393 208.021 100.463 208.007 100.538C207.993 100.614 208.002 100.692 208.035 100.762C208.067 100.833 208.121 100.893 208.19 100.935C208.259 100.977 208.339 101 208.422 101C211.916 101 214.539 99.4409 215.836 98.4769C217.647 99.109 219.566 99.4314 221.5 99.4286C228.956 99.4286 235 94.8557 235 89.2143C235 83.5729 228.956 79 221.5 79ZM226.562 90.3929C226.562 90.4971 226.518 90.597 226.439 90.6707C226.36 90.7443 226.253 90.7857 226.141 90.7857H223.188V93.5357C223.188 93.6399 223.143 93.7398 223.064 93.8135C222.985 93.8872 222.878 93.9286 222.766 93.9286H220.234C220.122 93.9286 220.015 93.8872 219.936 93.8135C219.857 93.7398 219.812 93.6399 219.812 93.5357V90.7857H216.859C216.747 90.7857 216.64 90.7443 216.561 90.6707C216.482 90.597 216.438 90.4971 216.438 90.3929V88.0357C216.438 87.9315 216.482 87.8316 216.561 87.7579C216.64 87.6843 216.747 87.6429 216.859 87.6429H219.812V84.8929C219.812 84.7887 219.857 84.6888 219.936 84.6151C220.015 84.5414 220.122 84.5 220.234 84.5H222.766C222.878 84.5 222.985 84.5414 223.064 84.6151C223.143 84.6888 223.188 84.7887 223.188 84.8929V87.6429H226.141C226.253 87.6429 226.36 87.6843 226.439 87.7579C226.518 87.8316 226.562 87.9315 226.562 88.0357V90.3929Z" fill="white" fill-opacity="0.34"/>
<path d="M29.0637 90.7245C26.8046 89.9684 22.2318 88.6726 18.8591 89.2501C18.6264 89.29 18.4391 89.4513 18.3542 89.6641L12.5009 104.332C12.3151 104.798 12.7068 105.295 13.2223 105.251C16.5712 104.96 20.7572 106.186 22.7932 106.877C23.4884 107.113 24.2355 106.778 24.4966 106.124L29.9312 92.5053C30.2165 91.7916 29.823 90.9789 29.0637 90.7245ZM16.9834 88.5017C14.9353 85.7609 10.7265 83.5529 8.56764 82.5456C7.84183 82.2074 6.99695 82.5259 6.71206 83.2398L1.27731 96.8591C1.01607 97.5137 1.32755 98.2708 1.99426 98.5779C3.94746 99.4789 7.82968 101.472 10.058 103.99C10.4 104.376 11.0248 104.285 11.2102 103.821L17.0675 89.1423C17.1526 88.929 17.125 88.6913 16.9834 88.5017Z" fill="white" fill-opacity="0.34"/>
<path d="M373.063 87.7245C370.804 86.9684 366.232 85.6726 362.859 86.2501C362.626 86.29 362.439 86.4513 362.354 86.6641L356.501 101.332C356.315 101.798 356.707 102.295 357.222 102.251C360.571 101.96 364.757 103.186 366.793 103.877C367.488 104.113 368.235 103.778 368.496 103.124L373.931 89.5053C374.216 88.7916 373.823 87.9789 373.063 87.7245ZM360.983 85.5017C358.935 82.7609 354.726 80.5529 352.567 79.5456C351.842 79.2074 350.997 79.5259 350.712 80.2398L345.277 93.8591C345.016 94.5137 345.327 95.2708 345.994 95.5779C347.947 96.4789 351.829 98.4725 354.058 100.99C354.4 101.376 355.025 101.285 355.21 100.821L361.067 86.1423C361.152 85.929 361.125 85.6913 360.983 85.5017Z" fill="white" fill-opacity="0.34"/>
<path d="M91.7377 104.987C92.831 104.694 93.6742 103.832 93.9661 102.739C94.3749 101.21 94.4031 99.5588 93.964 97.9199C93.5075 96.2163 92.6063 94.7547 91.4235 93.6153L92.9233 91.0175L93.4842 91.3414C93.858 91.5572 94.3358 91.4292 94.5516 91.0554L94.9415 90.3787C95.1573 90.0049 95.0292 89.5271 94.6555 89.3114L91.5045 87.4921C91.1307 87.2764 90.653 87.4044 90.4372 87.7781L90.0467 88.4545C89.8309 88.8283 89.9589 89.306 90.3327 89.5218L90.8936 89.8457L89.5329 92.2025C88.844 91.8123 88.1064 91.5065 87.3371 91.2991L85.3889 84.0282L86.1418 83.8255C86.5577 83.7135 86.8045 83.286 86.6936 82.8698L86.2946 81.3733C86.1832 80.9558 85.7538 80.7079 85.3365 80.8202L74.7778 83.6625C74.362 83.7744 74.1151 84.202 74.2261 84.6181L74.6252 86.1152C74.7366 86.5327 75.1658 86.7801 75.5831 86.6678L76.3361 86.4651L78.2814 93.7251C75.9972 96.0159 74.9552 99.4227 75.8529 102.773C76.292 104.412 77.1421 105.828 78.2604 106.947C79.0603 107.748 80.2216 108.073 81.3144 107.78L91.7377 104.987ZM79.9411 95.3802L80.895 94.4235L78.5993 85.8561L83.1257 84.6377L85.4227 93.2103L86.7271 93.5619C88.0789 93.9261 89.2596 94.6895 90.1602 95.7039L78.039 98.9517C78.3123 97.6228 78.9526 96.3715 79.9411 95.3802Z" fill="white" fill-opacity="0.34"/>
<path d="M193.063 120.725C190.804 119.968 186.232 118.673 182.859 119.25C182.626 119.29 182.439 119.451 182.354 119.664L176.501 134.332C176.315 134.798 176.707 135.295 177.222 135.251C180.571 134.96 184.757 136.186 186.793 136.877C187.488 137.113 188.235 136.778 188.496 136.124L193.931 122.505C194.216 121.792 193.823 120.979 193.063 120.725ZM180.983 118.502C178.935 115.761 174.726 113.553 172.567 112.546C171.842 112.207 170.997 112.526 170.712 113.24L165.277 126.859C165.016 127.514 165.327 128.271 165.994 128.578C167.947 129.479 171.829 131.472 174.058 133.99C174.4 134.376 175.025 134.285 175.21 133.821L181.067 119.142C181.152 118.929 181.125 118.691 180.983 118.502Z" fill="white" fill-opacity="0.34"/>
<path d="M255.738 134.987C256.831 134.694 257.674 133.832 257.966 132.739C258.375 131.21 258.403 129.559 257.964 127.92C257.507 126.216 256.606 124.755 255.423 123.615L256.923 121.018L257.484 121.341C257.858 121.557 258.336 121.429 258.552 121.055L258.941 120.379C259.157 120.005 259.029 119.527 258.655 119.311L255.505 117.492C255.131 117.276 254.653 117.404 254.437 117.778L254.047 118.454C253.831 118.828 253.959 119.306 254.333 119.522L254.894 119.846L253.533 122.202C252.844 121.812 252.106 121.506 251.337 121.299L249.389 114.028L250.142 113.825C250.558 113.714 250.805 113.286 250.694 112.87L250.295 111.373C250.183 110.956 249.754 110.708 249.337 110.82L238.778 113.663C238.362 113.774 238.115 114.202 238.226 114.618L238.625 116.115C238.737 116.533 239.166 116.78 239.583 116.668L240.336 116.465L242.281 123.725C239.997 126.016 238.955 129.423 239.853 132.773C240.292 134.412 241.142 135.828 242.26 136.947C243.06 137.748 244.222 138.073 245.314 137.78L255.738 134.987ZM243.941 125.38L244.895 124.423L242.599 115.856L247.126 114.638L249.423 123.21L250.727 123.562C252.079 123.926 253.26 124.69 254.16 125.704L242.039 128.952C242.312 127.623 242.953 126.371 243.941 125.38Z" fill="white" fill-opacity="0.34"/>
<path d="M296.738 99.9869C297.831 99.694 298.674 98.8321 298.966 97.7388C299.375 96.2098 299.403 94.5588 298.964 92.9199C298.507 91.2163 297.606 89.7547 296.423 88.6153L297.923 86.0175L298.484 86.3414C298.858 86.5572 299.336 86.4292 299.552 86.0554L299.941 85.3787C300.157 85.0049 300.029 84.5271 299.655 84.3114L296.505 82.4921C296.131 82.2764 295.653 82.4044 295.437 82.7781L295.047 83.4545C294.831 83.8283 294.959 84.306 295.333 84.5218L295.894 84.8457L294.533 87.2025C293.844 86.8123 293.106 86.5065 292.337 86.2991L290.389 79.0282L291.142 78.8255C291.558 78.7135 291.805 78.286 291.694 77.8698L291.295 76.3733C291.183 75.9558 290.754 75.7079 290.337 75.8202L279.778 78.6625C279.362 78.7744 279.115 79.202 279.226 79.6181L279.625 81.1152C279.737 81.5327 280.166 81.7801 280.583 81.6678L281.336 81.4651L283.281 88.7251C280.997 91.0159 279.955 94.4227 280.853 97.7727C281.292 99.4117 282.142 100.828 283.26 101.947C284.06 102.748 285.222 103.073 286.314 102.78L296.738 99.9869ZM284.941 90.3802L285.895 89.4235L283.599 80.8561L288.126 79.6377L290.423 88.2103L291.727 88.5619C293.079 88.9261 294.26 89.6895 295.16 90.7039L283.039 93.9517C283.312 92.6228 283.953 91.3715 284.941 90.3802Z" fill="white" fill-opacity="0.34"/>
<path d="M47.2847 51.6406C47.4706 51.0303 47.6513 50 47.9859 50C48.4269 50.0879 48.4959 51.1426 48.9741 51.7871C49.2184 50.6397 49.2556 47.6319 49.7231 47.5537C50.2013 47.5195 50.7697 50.8008 50.8919 51.3379C51.4178 51.5381 53.4897 51.6602 53.4897 51.6602C53.5906 52.0166 52.2147 52.0313 51.3647 52.041C51.1203 52.7637 51.0778 53.3936 50.7591 53.4082C50.5094 53.418 50.3234 52.002 49.8294 50.9863L49.33 54.1846C49.0963 54.8194 48.5066 53.086 48.1666 52.2656C47.9912 52.2608 44.8516 52.1875 45.6378 51.8848L47.2847 51.6406V51.6406ZM53.1125 61.875C54.2388 61.875 54.2388 60.3125 53.1125 60.3125H45.8875C44.7613 60.3125 44.7613 61.875 45.8875 61.875H53.1125ZM51.8375 65C52.9638 65 52.9638 63.4375 51.8375 63.4375H47.1625C46.0363 63.4375 46.0363 65 47.1625 65H51.8375ZM53.6544 58.0908C53.8244 57.168 53.9306 56.3135 54.2866 55.708C54.7063 54.9903 55.1419 54.336 55.5616 53.7061C56.8684 51.7334 58 50.0342 58 47.5781C58 43.3985 54.1856 40 49.5 40C44.8144 40 41 43.3985 41 47.5781C41 50.0293 42.1316 51.7334 43.4384 53.7061C43.8581 54.336 44.2884 54.9903 44.7134 55.708C45.0694 56.3184 45.1756 57.1631 45.3456 58.0957C45.5316 59.1211 47.2634 58.8623 47.0775 57.8467C46.8863 56.7871 46.78 55.8594 46.2647 54.9854C44.5328 52.0361 42.7531 50.3174 42.7531 47.5781C42.7531 44.2627 45.7813 41.5625 49.5 41.5625C53.2188 41.5625 56.2469 44.2627 56.2469 47.5781C56.2469 50.3174 54.4672 52.0361 52.7353 54.9805C52.22 55.8594 52.1138 56.8067 51.9225 57.8418C51.7419 58.8477 53.4631 59.1309 53.6544 58.0908Z" fill="white" fill-opacity="0.34"/>
<path d="M120.5 40C113.044 40 107 44.5729 107 50.2143C107 52.6481 108.129 54.8795 110.006 56.6346C109.345 59.1051 107.142 61.3125 107.116 61.3371C107.059 61.3928 107.021 61.4628 107.007 61.5383C106.993 61.6139 107.002 61.6917 107.035 61.7622C107.067 61.8327 107.121 61.8928 107.19 61.9351C107.259 61.9774 107.339 61.9999 107.422 62C110.916 62 113.539 60.4409 114.836 59.4769C116.647 60.109 118.566 60.4314 120.5 60.4286C127.956 60.4286 134 55.8557 134 50.2143C134 44.5729 127.956 40 120.5 40ZM125.562 51.3929C125.562 51.4971 125.518 51.597 125.439 51.6707C125.36 51.7443 125.253 51.7857 125.141 51.7857H122.188V54.5357C122.188 54.6399 122.143 54.7398 122.064 54.8135C121.985 54.8872 121.878 54.9286 121.766 54.9286H119.234C119.122 54.9286 119.015 54.8872 118.936 54.8135C118.857 54.7398 118.812 54.6399 118.812 54.5357V51.7857H115.859C115.747 51.7857 115.64 51.7443 115.561 51.6707C115.482 51.597 115.438 51.4971 115.438 51.3929V49.0357C115.438 48.9315 115.482 48.8316 115.561 48.7579C115.64 48.6843 115.747 48.6429 115.859 48.6429H118.812V45.8929C118.812 45.7887 118.857 45.6888 118.936 45.6151C119.015 45.5414 119.122 45.5 119.234 45.5H121.766C121.878 45.5 121.985 45.5414 122.064 45.6151C122.143 45.6888 122.188 45.7887 122.188 45.8929V48.6429H125.141C125.253 48.6429 125.36 48.6843 125.439 48.7579C125.518 48.8316 125.562 48.9315 125.562 49.0357V51.3929Z" fill="white" fill-opacity="0.34"/>
<path d="M330.5 39C323.044 39 317 43.5729 317 49.2143C317 51.6481 318.129 53.8795 320.006 55.6346C319.345 58.1051 317.142 60.3125 317.116 60.3371C317.059 60.3928 317.021 60.4628 317.007 60.5383C316.993 60.6139 317.002 60.6917 317.035 60.7622C317.067 60.8327 317.121 60.8928 317.19 60.9351C317.259 60.9774 317.339 60.9999 317.422 61C320.916 61 323.539 59.4409 324.836 58.4769C326.647 59.109 328.566 59.4314 330.5 59.4286C337.956 59.4286 344 54.8557 344 49.2143C344 43.5729 337.956 39 330.5 39ZM335.562 50.3929C335.562 50.4971 335.518 50.597 335.439 50.6707C335.36 50.7443 335.253 50.7857 335.141 50.7857H332.188V53.5357C332.188 53.6399 332.143 53.7398 332.064 53.8135C331.985 53.8872 331.878 53.9286 331.766 53.9286H329.234C329.122 53.9286 329.015 53.8872 328.936 53.8135C328.857 53.7398 328.812 53.6399 328.812 53.5357V50.7857H325.859C325.747 50.7857 325.64 50.7443 325.561 50.6707C325.482 50.597 325.438 50.4971 325.438 50.3929V48.0357C325.438 47.9315 325.482 47.8316 325.561 47.7579C325.64 47.6843 325.747 47.6429 325.859 47.6429H328.812V44.8929C328.812 44.7887 328.857 44.6888 328.936 44.6151C329.015 44.5414 329.122 44.5 329.234 44.5H331.766C331.878 44.5 331.985 44.5414 332.064 44.6151C332.143 44.6888 332.188 44.7887 332.188 44.8929V47.6429H335.141C335.253 47.6429 335.36 47.6843 335.439 47.7579C335.518 47.8316 335.562 47.9315 335.562 48.0357V50.3929Z" fill="white" fill-opacity="0.34"/>
<path d="M148.285 16.6406C148.471 16.0303 148.651 15 148.986 15C149.427 15.0879 149.496 16.1426 149.974 16.7871C150.218 15.6397 150.256 12.6319 150.723 12.5537C151.201 12.5195 151.77 15.8008 151.892 16.3379C152.418 16.5381 154.49 16.6602 154.49 16.6602C154.591 17.0166 153.215 17.0313 152.365 17.041C152.12 17.7637 152.078 18.3936 151.759 18.4082C151.509 18.418 151.323 17.002 150.829 15.9863L150.33 19.1846C150.096 19.8194 149.507 18.086 149.167 17.2656C148.991 17.2608 145.852 17.1875 146.638 16.8848L148.285 16.6406V16.6406ZM154.113 26.875C155.239 26.875 155.239 25.3125 154.113 25.3125H146.888C145.761 25.3125 145.761 26.875 146.888 26.875H154.113ZM152.838 30C153.964 30 153.964 28.4375 152.838 28.4375H148.163C147.036 28.4375 147.036 30 148.163 30H152.838ZM154.654 23.0908C154.824 22.168 154.931 21.3135 155.287 20.708C155.706 19.9903 156.142 19.336 156.562 18.7061C157.868 16.7334 159 15.0342 159 12.5781C159 8.39845 155.186 5.00002 150.5 5.00002C145.814 5.00002 142 8.39845 142 12.5781C142 15.0293 143.132 16.7334 144.438 18.7061C144.858 19.336 145.288 19.9903 145.713 20.708C146.069 21.3184 146.176 22.1631 146.346 23.0957C146.532 24.1211 148.263 23.8623 148.078 22.8467C147.886 21.7871 147.78 20.8594 147.265 19.9854C145.533 17.0361 143.753 15.3174 143.753 12.5781C143.753 9.26271 146.781 6.56252 150.5 6.56252C154.219 6.56252 157.247 9.26271 157.247 12.5781C157.247 15.3174 155.467 17.0361 153.735 19.9805C153.22 20.8594 153.114 21.8067 152.923 22.8418C152.742 23.8477 154.463 24.1309 154.654 23.0908Z" fill="white" fill-opacity="0.34"/>
<path d="M221.5 5.00002C214.044 5.00002 208 9.57287 208 15.2143C208 17.6481 209.129 19.8795 211.006 21.6346C210.345 24.1051 208.142 26.3125 208.116 26.3371C208.059 26.3928 208.021 26.4628 208.007 26.5383C207.993 26.6139 208.002 26.6917 208.035 26.7622C208.067 26.8327 208.121 26.8928 208.19 26.9351C208.259 26.9774 208.339 26.9999 208.422 27C211.916 27 214.539 25.4409 215.836 24.4769C217.647 25.109 219.566 25.4314 221.5 25.4286C228.956 25.4286 235 20.8557 235 15.2143C235 9.57287 228.956 5.00002 221.5 5.00002ZM226.562 16.3929C226.562 16.4971 226.518 16.597 226.439 16.6707C226.36 16.7443 226.253 16.7857 226.141 16.7857H223.188V19.5357C223.188 19.6399 223.143 19.7398 223.064 19.8135C222.985 19.8872 222.878 19.9286 222.766 19.9286H220.234C220.122 19.9286 220.015 19.8872 219.936 19.8135C219.857 19.7398 219.812 19.6399 219.812 19.5357V16.7857H216.859C216.747 16.7857 216.64 16.7443 216.561 16.6707C216.482 16.597 216.438 16.4971 216.438 16.3929V14.0357C216.438 13.9315 216.482 13.8316 216.561 13.7579C216.64 13.6843 216.747 13.6429 216.859 13.6429H219.812V10.8929C219.812 10.7887 219.857 10.6888 219.936 10.6151C220.015 10.5414 220.122 10.5 220.234 10.5H222.766C222.878 10.5 222.985 10.5414 223.064 10.6151C223.143 10.6888 223.188 10.7887 223.188 10.8929V13.6429H226.141C226.253 13.6429 226.36 13.6843 226.439 13.7579C226.518 13.8316 226.562 13.9315 226.562 14.0357V16.3929Z" fill="white" fill-opacity="0.34"/>
<path d="M29.0637 16.7245C26.8046 15.9684 22.2318 14.6726 18.8591 15.2501C18.6264 15.29 18.4391 15.4513 18.3542 15.6641L12.5009 30.3323C12.3151 30.7979 12.7068 31.2954 13.2223 31.2506C16.5712 30.9598 20.7572 32.1863 22.7932 32.8773C23.4884 33.1131 24.2355 32.7785 24.4966 32.1242L29.9312 18.5053C30.2165 17.7916 29.823 16.9789 29.0637 16.7245ZM16.9834 14.5017C14.9353 11.7609 10.7265 9.5529 8.56764 8.5456C7.84183 8.20737 6.99695 8.52585 6.71206 9.23977L1.27731 22.8591C1.01607 23.5137 1.32755 24.2708 1.99426 24.5779C3.94746 25.4789 7.82968 27.4725 10.058 29.9898C10.4 30.3763 11.0248 30.2849 11.2102 29.8205L17.0675 15.1423C17.1526 14.929 17.125 14.6913 16.9834 14.5017Z" fill="white" fill-opacity="0.34"/>
<path d="M373.063 13.7245C370.804 12.9684 366.232 11.6726 362.859 12.2501C362.626 12.29 362.439 12.4513 362.354 12.6641L356.501 27.3323C356.315 27.7979 356.707 28.2954 357.222 28.2506C360.571 27.9598 364.757 29.1863 366.793 29.8773C367.488 30.1131 368.235 29.7785 368.496 29.1242L373.931 15.5053C374.216 14.7916 373.823 13.9789 373.063 13.7245ZM360.983 11.5017C358.935 8.76094 354.726 6.5529 352.567 5.5456C351.842 5.20737 350.997 5.52585 350.712 6.23977L345.277 19.8591C345.016 20.5137 345.327 21.2708 345.994 21.5779C347.947 22.4789 351.829 24.4725 354.058 26.9898C354.4 27.3763 355.025 27.2849 355.21 26.8205L361.067 12.1423C361.152 11.929 361.125 11.6913 360.983 11.5017Z" fill="white" fill-opacity="0.34"/>
<path d="M91.7377 30.9869C92.831 30.694 93.6742 29.8321 93.9661 28.7388C94.3749 27.2098 94.4031 25.5588 93.964 23.9199C93.5075 22.2163 92.6063 20.7547 91.4235 19.6153L92.9233 17.0175L93.4842 17.3414C93.858 17.5572 94.3358 17.4292 94.5516 17.0554L94.9415 16.3787C95.1573 16.0049 95.0292 15.5271 94.6555 15.3114L91.5045 13.4921C91.1307 13.2764 90.653 13.4044 90.4372 13.7781L90.0467 14.4545C89.8309 14.8283 89.9589 15.306 90.3327 15.5218L90.8936 15.8457L89.5329 18.2025C88.844 17.8123 88.1064 17.5065 87.3371 17.2991L85.3889 10.0282L86.1418 9.82548C86.5577 9.71355 86.8045 9.28596 86.6936 8.86985L86.2946 7.37329C86.1832 6.95576 85.7538 6.70786 85.3365 6.82017L74.7778 9.66251C74.362 9.77444 74.1151 10.202 74.2261 10.6181L74.6252 12.1152C74.7366 12.5327 75.1658 12.7801 75.5831 12.6678L76.3361 12.4651L78.2814 19.7251C75.9972 22.0159 74.9552 25.4227 75.8529 28.7727C76.292 30.4117 77.1421 31.8278 78.2604 32.9471C79.0603 33.7479 80.2216 34.0726 81.3144 33.7798L91.7377 30.9869ZM79.9411 21.3802L80.895 20.4235L78.5993 11.8561L83.1257 10.6377L85.4227 19.2103L86.7271 19.5619C88.0789 19.9261 89.2596 20.6895 90.1602 21.7039L78.039 24.9517C78.3123 23.6228 78.9526 22.3715 79.9411 21.3802Z" fill="white" fill-opacity="0.34"/>
<path d="M193.063 46.7245C190.804 45.9684 186.232 44.6726 182.859 45.2501C182.626 45.29 182.439 45.4513 182.354 45.6641L176.501 60.3323C176.315 60.7979 176.707 61.2954 177.222 61.2506C180.571 60.9598 184.757 62.1863 186.793 62.8773C187.488 63.1131 188.235 62.7785 188.496 62.1242L193.931 48.5053C194.216 47.7916 193.823 46.9789 193.063 46.7245ZM180.983 44.5017C178.935 41.7609 174.726 39.5529 172.567 38.5456C171.842 38.2074 170.997 38.5259 170.712 39.2398L165.277 52.8591C165.016 53.5137 165.327 54.2708 165.994 54.5779C167.947 55.4789 171.829 57.4725 174.058 59.9898C174.4 60.3763 175.025 60.2849 175.21 59.8205L181.067 45.1423C181.152 44.929 181.125 44.6913 180.983 44.5017Z" fill="white" fill-opacity="0.34"/>
<path d="M255.738 60.9869C256.831 60.694 257.674 59.8321 257.966 58.7388C258.375 57.2098 258.403 55.5588 257.964 53.9199C257.507 52.2163 256.606 50.7547 255.423 49.6153L256.923 47.0175L257.484 47.3414C257.858 47.5572 258.336 47.4292 258.552 47.0554L258.941 46.3787C259.157 46.0049 259.029 45.5271 258.655 45.3114L255.505 43.4921C255.131 43.2764 254.653 43.4044 254.437 43.7781L254.047 44.4545C253.831 44.8283 253.959 45.306 254.333 45.5218L254.894 45.8457L253.533 48.2025C252.844 47.8123 252.106 47.5065 251.337 47.2991L249.389 40.0282L250.142 39.8255C250.558 39.7135 250.805 39.286 250.694 38.8698L250.295 37.3733C250.183 36.9558 249.754 36.7079 249.337 36.8202L238.778 39.6625C238.362 39.7744 238.115 40.202 238.226 40.6181L238.625 42.1152C238.737 42.5327 239.166 42.7801 239.583 42.6678L240.336 42.4651L242.281 49.7251C239.997 52.0159 238.955 55.4227 239.853 58.7727C240.292 60.4117 241.142 61.8278 242.26 62.9471C243.06 63.7479 244.222 64.0726 245.314 63.7798L255.738 60.9869ZM243.941 51.3802L244.895 50.4235L242.599 41.8561L247.126 40.6377L249.423 49.2103L250.727 49.5619C252.079 49.9261 253.26 50.6895 254.16 51.7039L242.039 54.9517C242.312 53.6228 242.953 52.3715 243.941 51.3802Z" fill="white" fill-opacity="0.34"/>
<path d="M296.738 25.9869C297.831 25.694 298.674 24.8321 298.966 23.7388C299.375 22.2098 299.403 20.5588 298.964 18.9199C298.507 17.2163 297.606 15.7547 296.423 14.6153L297.923 12.0175L298.484 12.3414C298.858 12.5572 299.336 12.4292 299.552 12.0554L299.941 11.3787C300.157 11.0049 300.029 10.5271 299.655 10.3114L296.505 8.49214C296.131 8.27635 295.653 8.40437 295.437 8.77813L295.047 9.45449C294.831 9.82826 294.959 10.306 295.333 10.5218L295.894 10.8457L294.533 13.2025C293.844 12.8123 293.106 12.5065 292.337 12.2991L290.389 5.02825L291.142 4.82548C291.558 4.71355 291.805 4.28596 291.694 3.86985L291.295 2.37329C291.183 1.95576 290.754 1.70786 290.337 1.82017L279.778 4.66251C279.362 4.77444 279.115 5.20203 279.226 5.61814L279.625 7.11517C279.737 7.53271 280.166 7.78014 280.583 7.66782L281.336 7.46505L283.281 14.7251C280.997 17.0159 279.955 20.4227 280.853 23.7727C281.292 25.4117 282.142 26.8278 283.26 27.9471C284.06 28.7479 285.222 29.0726 286.314 28.7798L296.738 25.9869ZM284.941 16.3802L285.895 15.4235L283.599 6.85609L288.126 5.63769L290.423 14.2103L291.727 14.5619C293.079 14.9261 294.26 15.6895 295.16 16.7039L283.039 19.9517C283.312 18.6228 283.953 17.3715 284.941 16.3802Z" fill="white" fill-opacity="0.34"/>
<path d="M47.2847 190.641C47.4706 190.03 47.6513 189 47.9859 189C48.4269 189.088 48.4959 190.143 48.9741 190.787C49.2184 189.64 49.2556 186.632 49.7231 186.554C50.2013 186.52 50.7697 189.801 50.8919 190.338C51.4178 190.538 53.4897 190.66 53.4897 190.66C53.5906 191.017 52.2147 191.031 51.3647 191.041C51.1203 191.764 51.0778 192.394 50.7591 192.408C50.5094 192.418 50.3234 191.002 49.8294 189.986L49.33 193.185C49.0963 193.819 48.5066 192.086 48.1666 191.266C47.9912 191.261 44.8516 191.188 45.6378 190.885L47.2847 190.641V190.641ZM53.1125 200.875C54.2388 200.875 54.2388 199.313 53.1125 199.313H45.8875C44.7613 199.313 44.7613 200.875 45.8875 200.875H53.1125ZM51.8375 204C52.9638 204 52.9638 202.438 51.8375 202.438H47.1625C46.0363 202.438 46.0363 204 47.1625 204H51.8375ZM53.6544 197.091C53.8244 196.168 53.9306 195.313 54.2866 194.708C54.7063 193.99 55.1419 193.336 55.5616 192.706C56.8684 190.733 58 189.034 58 186.578C58 182.398 54.1856 179 49.5 179C44.8144 179 41 182.398 41 186.578C41 189.029 42.1316 190.733 43.4384 192.706C43.8581 193.336 44.2884 193.99 44.7134 194.708C45.0694 195.318 45.1756 196.163 45.3456 197.096C45.5316 198.121 47.2634 197.862 47.0775 196.847C46.8863 195.787 46.78 194.859 46.2647 193.985C44.5328 191.036 42.7531 189.317 42.7531 186.578C42.7531 183.263 45.7813 180.563 49.5 180.563C53.2188 180.563 56.2469 183.263 56.2469 186.578C56.2469 189.317 54.4672 191.036 52.7353 193.98C52.22 194.859 52.1138 195.807 51.9225 196.842C51.7419 197.848 53.4631 198.131 53.6544 197.091Z" fill="white" fill-opacity="0.34"/>
<path d="M120.5 179C113.044 179 107 183.573 107 189.214C107 191.648 108.129 193.879 110.006 195.635C109.345 198.105 107.142 200.313 107.116 200.337C107.059 200.393 107.021 200.463 107.007 200.538C106.993 200.614 107.002 200.692 107.035 200.762C107.067 200.833 107.121 200.893 107.19 200.935C107.259 200.977 107.339 201 107.422 201C110.916 201 113.539 199.441 114.836 198.477C116.647 199.109 118.566 199.431 120.5 199.429C127.956 199.429 134 194.856 134 189.214C134 183.573 127.956 179 120.5 179ZM125.562 190.393C125.562 190.497 125.518 190.597 125.439 190.671C125.36 190.744 125.253 190.786 125.141 190.786H122.188V193.536C122.188 193.64 122.143 193.74 122.064 193.814C121.985 193.887 121.878 193.929 121.766 193.929H119.234C119.122 193.929 119.015 193.887 118.936 193.814C118.857 193.74 118.812 193.64 118.812 193.536V190.786H115.859C115.747 190.786 115.64 190.744 115.561 190.671C115.482 190.597 115.438 190.497 115.438 190.393V188.036C115.438 187.932 115.482 187.832 115.561 187.758C115.64 187.684 115.747 187.643 115.859 187.643H118.812V184.893C118.812 184.789 118.857 184.689 118.936 184.615C119.015 184.541 119.122 184.5 119.234 184.5H121.766C121.878 184.5 121.985 184.541 122.064 184.615C122.143 184.689 122.188 184.789 122.188 184.893V187.643H125.141C125.253 187.643 125.36 187.684 125.439 187.758C125.518 187.832 125.562 187.932 125.562 188.036V190.393Z" fill="white" fill-opacity="0.34"/>
<path d="M330.5 178C323.044 178 317 182.573 317 188.214C317 190.648 318.129 192.879 320.006 194.635C319.345 197.105 317.142 199.313 317.116 199.337C317.059 199.393 317.021 199.463 317.007 199.538C316.993 199.614 317.002 199.692 317.035 199.762C317.067 199.833 317.121 199.893 317.19 199.935C317.259 199.977 317.339 200 317.422 200C320.916 200 323.539 198.441 324.836 197.477C326.647 198.109 328.566 198.431 330.5 198.429C337.956 198.429 344 193.856 344 188.214C344 182.573 337.956 178 330.5 178ZM335.562 189.393C335.562 189.497 335.518 189.597 335.439 189.671C335.36 189.744 335.253 189.786 335.141 189.786H332.188V192.536C332.188 192.64 332.143 192.74 332.064 192.814C331.985 192.887 331.878 192.929 331.766 192.929H329.234C329.122 192.929 329.015 192.887 328.936 192.814C328.857 192.74 328.812 192.64 328.812 192.536V189.786H325.859C325.747 189.786 325.64 189.744 325.561 189.671C325.482 189.597 325.438 189.497 325.438 189.393V187.036C325.438 186.932 325.482 186.832 325.561 186.758C325.64 186.684 325.747 186.643 325.859 186.643H328.812V183.893C328.812 183.789 328.857 183.689 328.936 183.615C329.015 183.541 329.122 183.5 329.234 183.5H331.766C331.878 183.5 331.985 183.541 332.064 183.615C332.143 183.689 332.188 183.789 332.188 183.893V186.643H335.141C335.253 186.643 335.36 186.684 335.439 186.758C335.518 186.832 335.562 186.932 335.562 187.036V189.393Z" fill="white" fill-opacity="0.34"/>
<path d="M148.285 155.641C148.471 155.03 148.651 154 148.986 154C149.427 154.088 149.496 155.143 149.974 155.787C150.218 154.64 150.256 151.632 150.723 151.554C151.201 151.52 151.77 154.801 151.892 155.338C152.418 155.538 154.49 155.66 154.49 155.66C154.591 156.017 153.215 156.031 152.365 156.041C152.12 156.764 152.078 157.394 151.759 157.408C151.509 157.418 151.323 156.002 150.829 154.986L150.33 158.185C150.096 158.819 149.507 157.086 149.167 156.266C148.991 156.261 145.852 156.188 146.638 155.885L148.285 155.641V155.641ZM154.113 165.875C155.239 165.875 155.239 164.313 154.113 164.313H146.888C145.761 164.313 145.761 165.875 146.888 165.875H154.113ZM152.838 169C153.964 169 153.964 167.438 152.838 167.438H148.163C147.036 167.438 147.036 169 148.163 169H152.838ZM154.654 162.091C154.824 161.168 154.931 160.313 155.287 159.708C155.706 158.99 156.142 158.336 156.562 157.706C157.868 155.733 159 154.034 159 151.578C159 147.398 155.186 144 150.5 144C145.814 144 142 147.398 142 151.578C142 154.029 143.132 155.733 144.438 157.706C144.858 158.336 145.288 158.99 145.713 159.708C146.069 160.318 146.176 161.163 146.346 162.096C146.532 163.121 148.263 162.862 148.078 161.847C147.886 160.787 147.78 159.859 147.265 158.985C145.533 156.036 143.753 154.317 143.753 151.578C143.753 148.263 146.781 145.563 150.5 145.563C154.219 145.563 157.247 148.263 157.247 151.578C157.247 154.317 155.467 156.036 153.735 158.98C153.22 159.859 153.114 160.807 152.923 161.842C152.742 162.848 154.463 163.131 154.654 162.091Z" fill="white" fill-opacity="0.34"/>
<path d="M221.5 144C214.044 144 208 148.573 208 154.214C208 156.648 209.129 158.879 211.006 160.635C210.345 163.105 208.142 165.313 208.116 165.337C208.059 165.393 208.021 165.463 208.007 165.538C207.993 165.614 208.002 165.692 208.035 165.762C208.067 165.833 208.121 165.893 208.19 165.935C208.259 165.977 208.339 166 208.422 166C211.916 166 214.539 164.441 215.836 163.477C217.647 164.109 219.566 164.431 221.5 164.429C228.956 164.429 235 159.856 235 154.214C235 148.573 228.956 144 221.5 144ZM226.562 155.393C226.562 155.497 226.518 155.597 226.439 155.671C226.36 155.744 226.253 155.786 226.141 155.786H223.188V158.536C223.188 158.64 223.143 158.74 223.064 158.814C222.985 158.887 222.878 158.929 222.766 158.929H220.234C220.122 158.929 220.015 158.887 219.936 158.814C219.857 158.74 219.812 158.64 219.812 158.536V155.786H216.859C216.747 155.786 216.64 155.744 216.561 155.671C216.482 155.597 216.438 155.497 216.438 155.393V153.036C216.438 152.932 216.482 152.832 216.561 152.758C216.64 152.684 216.747 152.643 216.859 152.643H219.812V149.893C219.812 149.789 219.857 149.689 219.936 149.615C220.015 149.541 220.122 149.5 220.234 149.5H222.766C222.878 149.5 222.985 149.541 223.064 149.615C223.143 149.689 223.188 149.789 223.188 149.893V152.643H226.141C226.253 152.643 226.36 152.684 226.439 152.758C226.518 152.832 226.562 152.932 226.562 153.036V155.393Z" fill="white" fill-opacity="0.34"/>
<path d="M29.0637 155.725C26.8046 154.968 22.2318 153.673 18.8591 154.25C18.6264 154.29 18.4391 154.451 18.3542 154.664L12.5009 169.332C12.3151 169.798 12.7068 170.295 13.2223 170.251C16.5712 169.96 20.7572 171.186 22.7932 171.877C23.4884 172.113 24.2355 171.778 24.4966 171.124L29.9312 157.505C30.2165 156.792 29.823 155.979 29.0637 155.725ZM16.9834 153.502C14.9353 150.761 10.7265 148.553 8.56764 147.546C7.84183 147.207 6.99695 147.526 6.71206 148.24L1.27731 161.859C1.01607 162.514 1.32755 163.271 1.99426 163.578C3.94746 164.479 7.82968 166.472 10.058 168.99C10.4 169.376 11.0248 169.285 11.2102 168.821L17.0675 154.142C17.1526 153.929 17.125 153.691 16.9834 153.502Z" fill="white" fill-opacity="0.34"/>
<path d="M373.063 152.725C370.804 151.968 366.232 150.673 362.859 151.25C362.626 151.29 362.439 151.451 362.354 151.664L356.501 166.332C356.315 166.798 356.707 167.295 357.222 167.251C360.571 166.96 364.757 168.186 366.793 168.877C367.488 169.113 368.235 168.778 368.496 168.124L373.931 154.505C374.216 153.792 373.823 152.979 373.063 152.725ZM360.983 150.502C358.935 147.761 354.726 145.553 352.567 144.546C351.842 144.207 350.997 144.526 350.712 145.24L345.277 158.859C345.016 159.514 345.327 160.271 345.994 160.578C347.947 161.479 351.829 163.472 354.058 165.99C354.4 166.376 355.025 166.285 355.21 165.821L361.067 151.142C361.152 150.929 361.125 150.691 360.983 150.502Z" fill="white" fill-opacity="0.34"/>
<path d="M91.7377 169.987C92.831 169.694 93.6742 168.832 93.9661 167.739C94.3749 166.21 94.4031 164.559 93.964 162.92C93.5075 161.216 92.6063 159.755 91.4235 158.615L92.9233 156.018L93.4842 156.341C93.858 156.557 94.3358 156.429 94.5516 156.055L94.9415 155.379C95.1573 155.005 95.0292 154.527 94.6555 154.311L91.5045 152.492C91.1307 152.276 90.653 152.404 90.4372 152.778L90.0467 153.454C89.8309 153.828 89.9589 154.306 90.3327 154.522L90.8936 154.846L89.5329 157.202C88.844 156.812 88.1064 156.506 87.3371 156.299L85.3889 149.028L86.1418 148.825C86.5577 148.714 86.8045 148.286 86.6936 147.87L86.2946 146.373C86.1832 145.956 85.7538 145.708 85.3365 145.82L74.7778 148.663C74.362 148.774 74.1151 149.202 74.2261 149.618L74.6252 151.115C74.7366 151.533 75.1658 151.78 75.5831 151.668L76.3361 151.465L78.2814 158.725C75.9972 161.016 74.9552 164.423 75.8529 167.773C76.292 169.412 77.1421 170.828 78.2604 171.947C79.0603 172.748 80.2216 173.073 81.3144 172.78L91.7377 169.987ZM79.9411 160.38L80.895 159.423L78.5993 150.856L83.1257 149.638L85.4227 158.21L86.7271 158.562C88.0789 158.926 89.2596 159.69 90.1602 160.704L78.039 163.952C78.3123 162.623 78.9526 161.371 79.9411 160.38Z" fill="white" fill-opacity="0.34"/>
<path d="M193.063 185.725C190.804 184.968 186.232 183.673 182.859 184.25C182.626 184.29 182.439 184.451 182.354 184.664L176.501 199.332C176.315 199.798 176.707 200.295 177.222 200.251C180.571 199.96 184.757 201.186 186.793 201.877C187.488 202.113 188.235 201.778 188.496 201.124L193.931 187.505C194.216 186.792 193.823 185.979 193.063 185.725ZM180.983 183.502C178.935 180.761 174.726 178.553 172.567 177.546C171.842 177.207 170.997 177.526 170.712 178.24L165.277 191.859C165.016 192.514 165.327 193.271 165.994 193.578C167.947 194.479 171.829 196.472 174.058 198.99C174.4 199.376 175.025 199.285 175.21 198.821L181.067 184.142C181.152 183.929 181.125 183.691 180.983 183.502Z" fill="white" fill-opacity="0.34"/>
<path d="M255.738 199.987C256.831 199.694 257.674 198.832 257.966 197.739C258.375 196.21 258.403 194.559 257.964 192.92C257.507 191.216 256.606 189.755 255.423 188.615L256.923 186.018L257.484 186.341C257.858 186.557 258.336 186.429 258.552 186.055L258.941 185.379C259.157 185.005 259.029 184.527 258.655 184.311L255.505 182.492C255.131 182.276 254.653 182.404 254.437 182.778L254.047 183.454C253.831 183.828 253.959 184.306 254.333 184.522L254.894 184.846L253.533 187.202C252.844 186.812 252.106 186.506 251.337 186.299L249.389 179.028L250.142 178.825C250.558 178.714 250.805 178.286 250.694 177.87L250.295 176.373C250.183 175.956 249.754 175.708 249.337 175.82L238.778 178.663C238.362 178.774 238.115 179.202 238.226 179.618L238.625 181.115C238.737 181.533 239.166 181.78 239.583 181.668L240.336 181.465L242.281 188.725C239.997 191.016 238.955 194.423 239.853 197.773C240.292 199.412 241.142 200.828 242.26 201.947C243.06 202.748 244.222 203.073 245.314 202.78L255.738 199.987ZM243.941 190.38L244.895 189.423L242.599 180.856L247.126 179.638L249.423 188.21L250.727 188.562C252.079 188.926 253.26 189.69 254.16 190.704L242.039 193.952C242.312 192.623 242.953 191.371 243.941 190.38Z" fill="white" fill-opacity="0.34"/>
<path d="M296.738 164.987C297.831 164.694 298.674 163.832 298.966 162.739C299.375 161.21 299.403 159.559 298.964 157.92C298.507 156.216 297.606 154.755 296.423 153.615L297.923 151.018L298.484 151.341C298.858 151.557 299.336 151.429 299.552 151.055L299.941 150.379C300.157 150.005 300.029 149.527 299.655 149.311L296.505 147.492C296.131 147.276 295.653 147.404 295.437 147.778L295.047 148.454C294.831 148.828 294.959 149.306 295.333 149.522L295.894 149.846L294.533 152.202C293.844 151.812 293.106 151.506 292.337 151.299L290.389 144.028L291.142 143.825C291.558 143.714 291.805 143.286 291.694 142.87L291.295 141.373C291.183 140.956 290.754 140.708 290.337 140.82L279.778 143.663C279.362 143.774 279.115 144.202 279.226 144.618L279.625 146.115C279.737 146.533 280.166 146.78 280.583 146.668L281.336 146.465L283.281 153.725C280.997 156.016 279.955 159.423 280.853 162.773C281.292 164.412 282.142 165.828 283.26 166.947C284.06 167.748 285.222 168.073 286.314 167.78L296.738 164.987ZM284.941 155.38L285.895 154.423L283.599 145.856L288.126 144.638L290.423 153.21L291.727 153.562C293.079 153.926 294.26 154.69 295.16 155.704L283.039 158.952C283.312 157.623 283.953 156.371 284.941 155.38Z" fill="white" fill-opacity="0.34"/>
</svg>
