<svg width="169" height="170" viewBox="0 0 169 170" fill="none" xmlns="http://www.w3.org/2000/svg">
<rect x="63.1206" y="38.08" width="29.1847" height="108.12" fill="white"/>
<rect x="23.7551" y="106.76" width="29.24" height="107.916" transform="rotate(-90 23.7551 106.76)" fill="white"/>
<path d="M168.5 85C168.5 131.682 131.789 169.5 86.5361 169.5C41.2829 169.5 4.57227 131.682 4.57227 85C4.57227 38.3176 41.2829 0.5 86.5361 0.5C131.789 0.5 168.5 38.3176 168.5 85Z" fill="url(#paint0_linear_187_401)" stroke="url(#paint1_diamond_187_401)"/>
<path d="M67.65 63.26C67.13 63.26 66.714 63.1213 66.402 62.844C66.09 62.5667 65.934 62.1853 65.934 61.7V50.988C65.934 48.9773 66.506 47.4 67.65 46.256C68.794 45.112 70.3714 44.54 72.382 44.54C73.3527 44.54 74.2627 44.7827 75.112 45.268C75.9787 45.736 76.724 46.412 77.348 47.296C77.9547 46.3947 78.6827 45.71 79.532 45.242C80.3987 44.774 81.3347 44.54 82.34 44.54C84.3507 44.54 85.928 45.112 87.072 46.256C88.216 47.4 88.788 48.9773 88.788 50.988V61.7C88.788 62.168 88.6234 62.5493 88.294 62.844C87.982 63.1213 87.566 63.26 87.046 63.26C86.526 63.26 86.11 63.1213 85.798 62.844C85.486 62.5667 85.33 62.1853 85.33 61.7V50.988C85.33 49.6707 85.0874 48.726 84.602 48.154C84.1167 47.5647 83.3194 47.27 82.21 47.27C81.2047 47.27 80.4247 47.5907 79.87 48.232C79.3327 48.8733 79.064 49.792 79.064 50.988V61.7C79.064 62.1853 78.908 62.5667 78.596 62.844C78.284 63.1213 77.868 63.26 77.348 63.26C76.828 63.26 76.412 63.1213 76.1 62.844C75.8054 62.5667 75.658 62.1853 75.658 61.7V50.988C75.658 49.8267 75.3807 48.9167 74.826 48.258C74.2714 47.5993 73.5 47.27 72.512 47.27C71.4027 47.27 70.6054 47.5647 70.12 48.154C69.6347 48.726 69.392 49.6707 69.392 50.988V61.7C69.392 62.168 69.2274 62.5493 68.898 62.844C68.586 63.1213 68.17 63.26 67.65 63.26ZM98.4395 63.26C96.1862 63.26 94.4442 62.6793 93.2135 61.518C91.9828 60.3567 91.3675 58.71 91.3675 56.578C91.3675 54.5327 91.9915 52.9293 93.2395 51.768C94.4875 50.5893 96.1948 50 98.3615 50C99.6962 50 100.884 50.2167 101.924 50.65C102.964 51.066 103.77 51.664 104.342 52.444C104.931 53.2067 105.226 54.082 105.226 55.07C105.226 55.798 105.018 56.3613 104.602 56.76C104.203 57.1587 103.648 57.358 102.938 57.358H93.3175C93.3175 58.6927 93.7682 59.7413 94.6695 60.504C95.5708 61.2493 96.8275 61.622 98.4395 61.622C99.4275 61.622 100.277 61.518 100.988 61.31C101.698 61.0847 102.366 60.7293 102.99 60.244C103.319 59.9667 103.588 59.828 103.796 59.828C103.952 59.828 104.099 59.8973 104.238 60.036C104.48 60.244 104.602 60.4607 104.602 60.686C104.602 60.8593 104.498 61.05 104.29 61.258C103.579 61.934 102.747 62.4367 101.794 62.766C100.84 63.0953 99.7222 63.26 98.4395 63.26ZM102.366 55.824C102.678 55.824 102.912 55.7633 103.068 55.642C103.224 55.5033 103.302 55.2607 103.302 54.914C103.302 54.29 103.094 53.7267 102.678 53.224C102.262 52.7213 101.672 52.3313 100.91 52.054C100.164 51.7767 99.3148 51.638 98.3615 51.638C96.8188 51.638 95.5968 52.0193 94.6955 52.782C93.8115 53.5273 93.3695 54.5413 93.3695 55.824H102.366ZM113.95 63.26C111.801 63.26 110.102 62.6793 108.854 61.518C107.623 60.3393 107.008 58.736 107.008 56.708C107.008 55.4253 107.277 54.2813 107.814 53.276C108.369 52.2533 109.166 51.456 110.206 50.884C111.263 50.2947 112.529 50 114.002 50C115.25 50 116.307 50.234 117.174 50.702C118.058 51.17 118.838 51.82 119.514 52.652L119.54 44.306C119.54 43.9767 119.618 43.7253 119.774 43.552C119.947 43.3613 120.19 43.266 120.502 43.266C120.797 43.266 121.022 43.3613 121.178 43.552C121.351 43.7253 121.438 43.9767 121.438 44.306V62.22C121.438 62.5493 121.351 62.8093 121.178 63C121.022 63.1733 120.797 63.26 120.502 63.26C120.207 63.26 119.973 63.1733 119.8 63C119.627 62.8093 119.54 62.5493 119.54 62.22V60.556C118.933 61.44 118.153 62.116 117.2 62.584C116.264 63.0347 115.181 63.26 113.95 63.26ZM114.106 61.622C115.787 61.622 117.113 61.18 118.084 60.296C119.055 59.3947 119.54 58.1727 119.54 56.63C119.54 55.6073 119.289 54.7233 118.786 53.978C118.301 53.2153 117.642 52.6347 116.81 52.236C115.995 51.8373 115.103 51.638 114.132 51.638C112.503 51.638 111.229 52.106 110.31 53.042C109.391 53.9607 108.932 55.1827 108.932 56.708C108.932 58.3373 109.383 59.568 110.284 60.4C111.185 61.2147 112.459 61.622 114.106 61.622ZM131.422 63.26C129.169 63.26 127.427 62.6793 126.196 61.518C124.965 60.3567 124.35 58.71 124.35 56.578C124.35 54.5327 124.974 52.9293 126.222 51.768C127.47 50.5893 129.177 50 131.344 50C132.679 50 133.866 50.2167 134.906 50.65C135.946 51.066 136.752 51.664 137.324 52.444C137.913 53.2067 138.208 54.082 138.208 55.07C138.208 55.798 138 56.3613 137.584 56.76C137.185 57.1587 136.631 57.358 135.92 57.358H126.3C126.3 58.6927 126.751 59.7413 127.652 60.504C128.553 61.2493 129.81 61.622 131.422 61.622C132.41 61.622 133.259 61.518 133.97 61.31C134.681 61.0847 135.348 60.7293 135.972 60.244C136.301 59.9667 136.57 59.828 136.778 59.828C136.934 59.828 137.081 59.8973 137.22 60.036C137.463 60.244 137.584 60.4607 137.584 60.686C137.584 60.8593 137.48 61.05 137.272 61.258C136.561 61.934 135.729 62.4367 134.776 62.766C133.823 63.0953 132.705 63.26 131.422 63.26ZM135.348 55.824C135.66 55.824 135.894 55.7633 136.05 55.642C136.206 55.5033 136.284 55.2607 136.284 54.914C136.284 54.29 136.076 53.7267 135.66 53.224C135.244 52.7213 134.655 52.3313 133.892 52.054C133.147 51.7767 132.297 51.638 131.344 51.638C129.801 51.638 128.579 52.0193 127.678 52.782C126.794 53.5273 126.352 54.5413 126.352 55.824H135.348ZM142.112 63.26C141.817 63.26 141.583 63.1733 141.41 63C141.254 62.8093 141.176 62.5493 141.176 62.22V51.04C141.176 50.7107 141.254 50.4593 141.41 50.286C141.566 50.0953 141.8 50 142.112 50C142.406 50 142.632 50.0953 142.788 50.286C142.961 50.4593 143.048 50.7107 143.048 51.04V52.574C143.689 51.7247 144.46 51.0833 145.362 50.65C146.28 50.2167 147.286 50 148.378 50C150.024 50 151.29 50.4593 152.174 51.378C153.075 52.2967 153.526 53.614 153.526 55.33V62.22C153.526 62.5493 153.439 62.8093 153.266 63C153.092 63.1733 152.858 63.26 152.564 63.26C152.252 63.26 152.018 63.1733 151.862 63C151.706 62.8093 151.628 62.5493 151.628 62.22V55.33C151.628 52.8687 150.466 51.638 148.144 51.638C146.618 51.638 145.388 52.0887 144.452 52.99C143.533 53.8913 143.074 55.0873 143.074 56.578V62.22C143.074 62.532 142.987 62.7833 142.814 62.974C142.658 63.1647 142.424 63.26 142.112 63.26ZM67.65 101.26C67.13 101.26 66.714 101.121 66.402 100.844C66.09 100.567 65.934 100.185 65.934 99.7V86.648C65.934 85.4347 66.2807 84.49 66.974 83.814C67.6847 83.138 68.664 82.8 69.912 82.8H74.306C76.9407 82.8 78.9427 83.346 80.312 84.438C81.6814 85.53 82.366 87.1333 82.366 89.248C82.366 91.3627 81.6987 92.966 80.364 94.058C79.0294 95.15 77.062 95.696 74.462 95.696H69.392V99.7C69.392 100.168 69.2274 100.549 68.898 100.844C68.586 101.121 68.17 101.26 67.65 101.26ZM74.436 93.018C77.4 93.018 78.882 91.7613 78.882 89.248C78.882 86.7347 77.4 85.478 74.436 85.478H70.51C70.1634 85.478 69.886 85.5907 69.678 85.816C69.4874 86.0413 69.392 86.3533 69.392 86.752V93.018H74.436ZM86.3538 101.26C86.0591 101.26 85.8251 101.173 85.6518 101C85.4958 100.809 85.4178 100.549 85.4178 100.22V82.306C85.4178 81.9767 85.4958 81.7253 85.6518 81.552C85.8251 81.3613 86.0591 81.266 86.3538 81.266C86.6484 81.266 86.8824 81.3613 87.0558 81.552C87.2291 81.7253 87.3158 81.9767 87.3158 82.306V90.574C87.9571 89.7247 88.7284 89.0833 89.6298 88.65C90.5484 88.2167 91.5451 88 92.6198 88C94.2664 88 95.5318 88.4593 96.4158 89.378C97.3171 90.2967 97.7678 91.614 97.7678 93.33V100.22C97.7678 100.549 97.6811 100.809 97.5078 101C97.3344 101.173 97.1004 101.26 96.8058 101.26C96.4938 101.26 96.2598 101.173 96.1038 101C95.9478 100.809 95.8698 100.549 95.8698 100.22V93.33C95.8698 90.8687 94.7084 89.638 92.3858 89.638C90.8604 89.638 89.6298 90.0887 88.6938 90.99C87.7751 91.8913 87.3158 93.0873 87.3158 94.578V100.22C87.3158 100.532 87.2291 100.783 87.0558 100.974C86.8998 101.165 86.6658 101.26 86.3538 101.26ZM106.044 101.26C104.346 101.26 103.011 100.887 102.04 100.142C101.087 99.3967 100.61 98.3653 100.61 97.048C100.61 95.748 101.113 94.7167 102.118 93.954C103.141 93.1913 104.528 92.81 106.278 92.81C107.301 92.81 108.202 92.9487 108.982 93.226C109.78 93.5033 110.395 93.876 110.828 94.344V92.68C110.828 91.692 110.499 90.938 109.84 90.418C109.199 89.898 108.254 89.638 107.006 89.638C105.394 89.638 103.999 90.0193 102.82 90.782C102.526 90.9553 102.283 91.042 102.092 91.042C101.919 91.042 101.746 90.9727 101.572 90.834C101.382 90.678 101.286 90.4787 101.286 90.236C101.286 89.976 101.399 89.7593 101.624 89.586C102.248 89.1007 103.037 88.7193 103.99 88.442C104.961 88.1473 105.949 88 106.954 88C108.792 88 110.213 88.416 111.218 89.248C112.241 90.08 112.752 91.25 112.752 92.758V100.246C112.752 100.922 112.44 101.26 111.816 101.26C111.539 101.26 111.314 101.173 111.14 101C110.967 100.809 110.88 100.567 110.88 100.272V99.336C109.806 100.619 108.194 101.26 106.044 101.26ZM106.278 99.674C107.63 99.674 108.731 99.4227 109.58 98.92C110.43 98.4 110.854 97.7327 110.854 96.918C110.854 96.1033 110.456 95.4793 109.658 95.046C108.878 94.5953 107.769 94.37 106.33 94.37C105.117 94.37 104.181 94.604 103.522 95.072C102.864 95.5227 102.534 96.1813 102.534 97.048C102.534 97.8973 102.855 98.5473 103.496 98.998C104.138 99.4487 105.065 99.674 106.278 99.674ZM117.229 101.26C116.934 101.26 116.7 101.173 116.527 101C116.371 100.809 116.293 100.549 116.293 100.22V89.04C116.293 88.7107 116.371 88.4593 116.527 88.286C116.683 88.0953 116.917 88 117.229 88C117.523 88 117.749 88.0953 117.905 88.286C118.078 88.4593 118.165 88.7107 118.165 89.04V90.6C119.343 89.04 120.973 88.26 123.053 88.26H123.703C124.032 88.26 124.292 88.338 124.483 88.494C124.673 88.6327 124.769 88.832 124.769 89.092C124.769 89.352 124.673 89.5513 124.483 89.69C124.292 89.8287 124.032 89.898 123.703 89.898H122.975C121.501 89.898 120.331 90.3227 119.465 91.172C118.615 92.004 118.191 93.1393 118.191 94.578V100.22C118.191 100.532 118.104 100.783 117.931 100.974C117.775 101.165 117.541 101.26 117.229 101.26ZM128.399 101.26C128.105 101.26 127.871 101.173 127.697 101C127.541 100.809 127.463 100.549 127.463 100.22V89.04C127.463 88.7107 127.541 88.4593 127.697 88.286C127.871 88.0953 128.105 88 128.399 88C128.711 88 128.945 88.0953 129.101 88.286C129.275 88.4767 129.361 88.728 129.361 89.04V90.522C129.829 89.742 130.427 89.1267 131.155 88.676C131.901 88.2253 132.681 88 133.495 88C134.31 88 135.029 88.2253 135.653 88.676C136.277 89.1093 136.737 89.7247 137.031 90.522C137.638 89.7073 138.305 89.0833 139.033 88.65C139.779 88.2167 140.55 88 141.347 88C142.717 88 143.748 88.4247 144.441 89.274C145.135 90.106 145.481 91.3453 145.481 92.992V100.22C145.481 100.549 145.395 100.809 145.221 101C145.048 101.173 144.814 101.26 144.519 101.26C143.895 101.26 143.583 100.913 143.583 100.22V92.94C143.583 91.8307 143.393 91.0073 143.011 90.47C142.647 89.9153 142.015 89.638 141.113 89.638C140.351 89.638 139.666 89.872 139.059 90.34C138.453 90.7907 137.967 91.4493 137.603 92.316V100.22C137.603 100.549 137.517 100.809 137.343 101C137.17 101.173 136.936 101.26 136.641 101.26C136.347 101.26 136.113 101.173 135.939 101C135.783 100.809 135.705 100.549 135.705 100.22V93.33C135.705 92.134 135.489 91.224 135.055 90.6C134.639 89.9587 134.041 89.638 133.261 89.638C132.516 89.638 131.849 89.846 131.259 90.262C130.67 90.6607 130.202 91.2153 129.855 91.926C129.526 92.6367 129.361 93.4427 129.361 94.344V100.22C129.361 100.532 129.275 100.783 129.101 100.974C128.945 101.165 128.711 101.26 128.399 101.26ZM153.703 101.26C152.004 101.26 150.669 100.887 149.699 100.142C148.745 99.3967 148.269 98.3653 148.269 97.048C148.269 95.748 148.771 94.7167 149.777 93.954C150.799 93.1913 152.186 92.81 153.937 92.81C154.959 92.81 155.861 92.9487 156.641 93.226C157.438 93.5033 158.053 93.876 158.487 94.344V92.68C158.487 91.692 158.157 90.938 157.499 90.418C156.857 89.898 155.913 89.638 154.665 89.638C153.053 89.638 151.657 90.0193 150.479 90.782C150.184 90.9553 149.941 91.042 149.751 91.042C149.577 91.042 149.404 90.9727 149.231 90.834C149.04 90.678 148.945 90.4787 148.945 90.236C148.945 89.976 149.057 89.7593 149.283 89.586C149.907 89.1007 150.695 88.7193 151.649 88.442C152.619 88.1473 153.607 88 154.613 88C156.45 88 157.871 88.416 158.877 89.248C159.899 90.08 160.411 91.25 160.411 92.758V100.246C160.411 100.922 160.099 101.26 159.475 101.26C159.197 101.26 158.972 101.173 158.799 101C158.625 100.809 158.539 100.567 158.539 100.272V99.336C157.464 100.619 155.852 101.26 153.703 101.26ZM153.937 99.674C155.289 99.674 156.389 99.4227 157.239 98.92C158.088 98.4 158.513 97.7327 158.513 96.918C158.513 96.1033 158.114 95.4793 157.317 95.046C156.537 94.5953 155.427 94.37 153.989 94.37C152.775 94.37 151.839 94.604 151.181 95.072C150.522 95.5227 150.193 96.1813 150.193 97.048C150.193 97.8973 150.513 98.5473 151.155 98.998C151.796 99.4487 152.723 99.674 153.937 99.674ZM79.948 139.26C78.856 139.26 78.2407 138.879 78.102 138.116C77.7727 136.261 77.1227 134.719 76.152 133.488C75.1987 132.257 73.8034 131.165 71.966 130.212L69.392 132.344V137.7C69.392 138.168 69.2274 138.549 68.898 138.844C68.586 139.121 68.17 139.26 67.65 139.26C67.13 139.26 66.714 139.121 66.402 138.844C66.09 138.567 65.934 138.185 65.934 137.7V122.1C65.934 121.615 66.09 121.233 66.402 120.956C66.714 120.679 67.13 120.54 67.65 120.54C68.17 120.54 68.586 120.687 68.898 120.982C69.2274 121.259 69.392 121.632 69.392 122.1V128.574L78.076 121.008C78.388 120.713 78.752 120.566 79.168 120.566C79.584 120.566 79.948 120.731 80.26 121.06C80.5894 121.424 80.754 121.762 80.754 122.074C80.754 122.438 80.546 122.802 80.13 123.166L74.15 128.366C76.23 129.267 77.8854 130.541 79.116 132.188C80.364 133.817 81.1094 135.62 81.352 137.596C81.404 138.047 81.2914 138.437 81.014 138.766C80.7367 139.095 80.3814 139.26 79.948 139.26ZM85.7802 123.244C85.3988 123.244 85.0695 123.123 84.7922 122.88C84.5322 122.62 84.4022 122.308 84.4022 121.944C84.4022 121.58 84.5322 121.268 84.7922 121.008C85.0695 120.748 85.3988 120.618 85.7802 120.618C86.1615 120.618 86.4908 120.757 86.7682 121.034C87.0628 121.294 87.2102 121.597 87.2102 121.944C87.2102 122.291 87.0628 122.594 86.7682 122.854C86.4908 123.114 86.1615 123.244 85.7802 123.244ZM85.7802 139.26C85.4855 139.26 85.2515 139.173 85.0782 139C84.9222 138.809 84.8442 138.549 84.8442 138.22V127.04C84.8442 126.711 84.9222 126.459 85.0782 126.286C85.2515 126.095 85.4855 126 85.7802 126C86.0922 126 86.3262 126.095 86.4822 126.286C86.6555 126.459 86.7422 126.711 86.7422 127.04V138.22C86.7422 138.549 86.6555 138.809 86.4822 139C86.3262 139.173 86.0922 139.26 85.7802 139.26ZM91.8382 139.26C91.5435 139.26 91.3095 139.173 91.1362 139C90.9802 138.809 90.9022 138.549 90.9022 138.22V127.04C90.9022 126.711 90.9802 126.459 91.1362 126.286C91.2922 126.095 91.5262 126 91.8382 126C92.1328 126 92.3582 126.095 92.5142 126.286C92.6875 126.459 92.7742 126.711 92.7742 127.04V128.574C93.4155 127.725 94.1868 127.083 95.0882 126.65C96.0068 126.217 97.0122 126 98.1042 126C99.7508 126 101.016 126.459 101.9 127.378C102.801 128.297 103.252 129.614 103.252 131.33V138.22C103.252 138.549 103.165 138.809 102.992 139C102.819 139.173 102.585 139.26 102.29 139.26C101.978 139.26 101.744 139.173 101.588 139C101.432 138.809 101.354 138.549 101.354 138.22V131.33C101.354 128.869 100.193 127.638 97.8702 127.638C96.3448 127.638 95.1142 128.089 94.1782 128.99C93.2595 129.891 92.8002 131.087 92.8002 132.578V138.22C92.8002 138.532 92.7135 138.783 92.5402 138.974C92.3842 139.165 92.1502 139.26 91.8382 139.26ZM113.141 139.26C110.887 139.26 109.145 138.679 107.915 137.518C106.684 136.357 106.069 134.71 106.069 132.578C106.069 130.533 106.693 128.929 107.941 127.768C109.189 126.589 110.896 126 113.063 126C114.397 126 115.585 126.217 116.625 126.65C117.665 127.066 118.471 127.664 119.043 128.444C119.632 129.207 119.927 130.082 119.927 131.07C119.927 131.798 119.719 132.361 119.303 132.76C118.904 133.159 118.349 133.358 117.639 133.358H108.019C108.019 134.693 108.469 135.741 109.371 136.504C110.272 137.249 111.529 137.622 113.141 137.622C114.129 137.622 114.978 137.518 115.689 137.31C116.399 137.085 117.067 136.729 117.691 136.244C118.02 135.967 118.289 135.828 118.497 135.828C118.653 135.828 118.8 135.897 118.939 136.036C119.181 136.244 119.303 136.461 119.303 136.686C119.303 136.859 119.199 137.05 118.991 137.258C118.28 137.934 117.448 138.437 116.495 138.766C115.541 139.095 114.423 139.26 113.141 139.26ZM117.067 131.824C117.379 131.824 117.613 131.763 117.769 131.642C117.925 131.503 118.003 131.261 118.003 130.914C118.003 130.29 117.795 129.727 117.379 129.224C116.963 128.721 116.373 128.331 115.611 128.054C114.865 127.777 114.016 127.638 113.063 127.638C111.52 127.638 110.298 128.019 109.397 128.782C108.513 129.527 108.071 130.541 108.071 131.824H117.067Z" fill="white"/>
<defs>
<linearGradient id="paint0_linear_187_401" x1="-68.0419" y1="64.0081" x2="237.217" y2="127.005" gradientUnits="userSpaceOnUse">
<stop offset="0.214621" stop-color="#50F4E1"/>
<stop offset="1" stop-color="#0075FF" stop-opacity="0.54"/>
</linearGradient>
<radialGradient id="paint1_diamond_187_401" cx="0" cy="0" r="1" gradientUnits="userSpaceOnUse" gradientTransform="translate(86.5361 85) rotate(90) scale(85 82.4639)">
<stop stop-color="#FF0000"/>
<stop offset="1" stop-color="#FF0000" stop-opacity="0"/>
</radialGradient>
</defs>
</svg>
